SplineFontDB: 3.0
FontName: Phonemes
FullName: Phonemes
FamilyName: Phonemes
Weight: Normal
Copyright: CC BY SA
Version: 001.001
ItalicAngle: 0
UnderlinePosition: -51.2
UnderlineWidth: 51.2
Ascent: 768
Descent: 256
sfntRevision: 0x00010000
LayerCount: 2
Layer: 0 0 "Back"  1
Layer: 1 0 "Fore"  0
XUID: [1021 552 1961940206 7326107]
FSType: 0
OS2Version: 3
OS2_WeightWidthSlopeOnly: 0
OS2_UseTypoMetrics: 1
CreationTime: 1406040127
ModificationTime: 1459284790
PfmFamily: 81
TTFWeight: 400
TTFWidth: 5
LineGap: 0
VLineGap: 0
Panose: 0 0 0 0 0 0 0 0 0 0
OS2TypoAscent: 768
OS2TypoAOffset: 0
OS2TypoDescent: -256
OS2TypoDOffset: 0
OS2TypoLinegap: 0
OS2WinAscent: 1024
OS2WinAOffset: 0
OS2WinDescent: 0
OS2WinDOffset: 0
HheadAscent: 768
HheadAOffset: 0
HheadDescent: -256
HheadDOffset: 0
OS2SubXSize: 666
OS2SubYSize: 614
OS2SubXOff: 0
OS2SubYOff: 77
OS2SupXSize: 666
OS2SupYSize: 614
OS2SupXOff: 0
OS2SupYOff: 358
OS2StrikeYSize: 51
OS2StrikeYPos: 345
OS2Vendor: 'pyrs'
OS2CodePages: 00000001.00000000
OS2UnicodeRanges: 00000003.00000000.00000000.00000000
Lookup: 4 0 1 "'liga' Standard Ligatures in Latin lookup 0"  {"'liga' Standard Ligatures in Latin lookup 0 subtable"  } ['liga' ('DFLT' <'dflt' > 'latn' <'dflt' > ) ]
Lookup: 4 0 1 "'liga' Standard Ligatures in Latin lookup 1"  {"'liga' Standard Ligatures in Latin lookup 1 subtable"  } ['liga' ('DFLT' <'dflt' > 'latn' <'dflt' > ) ]
Lookup: 1 0 0 "'salt' Stylistic Alternatives in Latin lookup 2"  {"'salt' Stylistic Alternatives in Latin lookup 2 subtable"  } ['salt' ('DFLT' <'dflt' > 'latn' <'dflt' > ) ]
Lookup: 4 0 0 "'salt' Stylistic Alternatives in Latin lookup 3"  {"'salt' Stylistic Alternatives in Latin lookup 3 subtable"  } ['salt' ('DFLT' <'dflt' > 'latn' <'dflt' > ) ]
Lookup: 1 0 0 "'salt' Stylistic Alternatives in Latin lookup 4"  {"'salt' Stylistic Alternatives in Latin lookup 4 subtable"  } ['salt' ('DFLT' <'dflt' > 'latn' <'dflt' > ) ]

StartChar: B
Encoding: 66 66 1
Width: 427
Flags: HMW
HStem: -6 58<155 204 155 221> 352 57<129 165 129 201> 666 58<132 187>
VStem: 0 61<60 348 60 406 406 654> 297 61<504 567> 315 61<156 231 139 243>
LayerCount: 2
Fore
SplineSet
162 -6 m 0xf4
 136 -6 38 1 27 2 c 2
 0 3 l 1
 0 708 l 1
 24 710 l 2
 27 710 92 724 146 724 c 0
 262 724 358 636 358 528 c 0xf8
 358 454 321 401 293 371 c 1
 347 331 377 269 377 195 c 0
 377 84 280 -6 162 -6 c 0xf4
61 348 m 1
 61 60 l 1
 101 56 149 52 162 52 c 0
 246 52 315 118 315 195 c 0
 315 291 253 352 150 352 c 0
 105 352 76 349 61 348 c 1
150 410 m 0
 181 410 209 407 236 399 c 1
 274 437 297 480 297 528 c 0xf8
 297 605 227 666 146 666 c 0
 117 666 83 659 61 654 c 1
 61 406 l 1
 79 408 109 410 150 410 c 0
EndSplineSet
EndChar

StartChar: C
Encoding: 67 67 2
Width: 504
Flags: HMW
HStem: -1 61<245 340 245 346> 658 61<245 339>
VStem: -8 61<277 442 277 450>
LayerCount: 2
Fore
SplineSet
318 -1 m 0
 135 -1 -8 164 -8 359 c 0
 -8 539 118 720 318 720 c 0
 369 720 419 708 464 682 c 1
 434 629 l 1
 398 648 359 658 318 658 c 0
 172 658 53 524 53 359 c 0
 53 194 172 60 318 60 c 0
 362 60 407 72 445 96 c 1
 478 44 l 1
 430 14 373 -1 318 -1 c 0
EndSplineSet
EndChar

StartChar: D
Encoding: 68 68 3
Width: 565
Flags: HMW
HStem: -7 59<137 233 137 260> 0 52 672 55<139 224 139 234>
VStem: 0 61<62 664 62 717 62 717> 443 62<274 449>
LayerCount: 2
Fore
SplineSet
0 0 m 1x78
 0 717 l 1
 33 720 113 727 166 727 c 0
 283 727 506 635 506 361 c 0xb8
 506 155 366 -7 154 -7 c 0
 119 -7 47 0 0 0 c 1x78
155 672 m 0
 121 672 93 670 61 664 c 1
 61 62 l 1x78
 92 57 120 52 154 52 c 0
 314 52 443 187 443 361 c 0
 443 535 315 672 155 672 c 0
EndSplineSet
EndChar

StartChar: E
Encoding: 69 69 4
Width: 444
Flags: HMW
HStem: 0 59<61 383 61 383> 308 59<61 383 61 383> 657 59<61 383 61 61>
VStem: 0 61<59 308 368 657>
LayerCount: 2
Fore
SplineSet
0 0 m 1
 0 717 l 1
 383 717 l 1
 383 657 l 1
 61 657 l 1
 61 368 l 1
 383 368 l 1
 383 308 l 1
 61 308 l 1
 61 59 l 1
 383 59 l 1
 383 0 l 1
 0 0 l 1
EndSplineSet
Substitution2: "'salt' Stylistic Alternatives in Latin lookup 2 subtable" E.alt
EndChar

StartChar: F
Encoding: 70 70 5
Width: 442
Flags: HMW
HStem: 0 22G<0 0 0 61> 307 59<61 383 61 383> 657 59<61 383 61 61>
VStem: 0 61<0 307 367 657>
LayerCount: 2
Fore
SplineSet
0 0 m 1
 0 717 l 1
 383 717 l 1
 383 657 l 1
 61 657 l 1
 61 367 l 1
 383 367 l 1
 383 307 l 1
 61 307 l 1
 61 0 l 1
 0 0 l 1
EndSplineSet
EndChar

StartChar: G
Encoding: 71 71 6
Width: 530
Flags: HMW
HStem: -5 62<249 340> 655 61<249 343>
VStem: -4 61<274 438 274 454> 426 61<-34 14 14 14 81 308 -50 308>
LayerCount: 2
Fore
SplineSet
426 308 m 1
 487 308 l 1
 487 -50 l 1
 416 -177 l 1
 361 -146 l 1
 426 -34 l 1
 426 14 l 1
 392 1 358 -5 323 -5 c 0
 123 -5 -4 176 -4 356 c 0
 -4 551 140 717 323 717 c 0
 374 717 423 705 468 679 c 1
 438 625 l 1
 402 645 364 655 323 655 c 0
 177 655 57 520 57 356 c 0
 57 191 177 57 323 57 c 0
 359 57 393 66 426 81 c 1
 426 308 l 1
EndSplineSet
EndChar

StartChar: H
Encoding: 72 72 7
Width: 498
Flags: HMW
HStem: 0 22G<0 61 0 0 380 441 380 380> 307 60<61 380 61 380> 696 20G<0 61 61 61 380 441 441 441>
VStem: 0 61<0 307 0 368 368 717> 380 61<0 307 307 307 368 717 0 717>
LayerCount: 2
Fore
SplineSet
441 717 m 1
 441 0 l 1
 380 0 l 1
 380 307 l 1
 61 307 l 1
 61 0 l 1
 0 0 l 1
 0 717 l 1
 61 717 l 1
 61 368 l 1
 380 368 l 1
 380 717 l 1
 441 717 l 1
EndSplineSet
EndChar

StartChar: I
Encoding: 73 73 8
Width: 121
Flags: HMW
HStem: 0 22G<0 61 0 0> 696 20G<0 61 61 61>
VStem: 0 61<0 717 0 717>
LayerCount: 2
Fore
SplineSet
61 717 m 1
 61 0 l 1
 0 0 l 1
 0 717 l 1
 61 717 l 1
EndSplineSet
EndChar

StartChar: J
Encoding: 74 74 9
Width: 486
Flags: HMW
HStem: -79 61<178 273 178 289> 327 61<178 230> 696 20G<397 459 459 459>
VStem: -8 61<107 202 107 218> 397 61<155 717>
LayerCount: 2
Fore
SplineSet
-8 155 m 0
 -8 28 98 -79 225 -79 c 0
 352 -79 459 28 459 155 c 2
 459 717 l 1
 397 717 l 1
 397 155 l 2
 397 60 320 -17 225 -17 c 0
 84 -17 53 155 53 155 c 1
 -8 155 l 0
EndSplineSet
EndChar

StartChar: K
Encoding: 75 75 10
Width: 541
Flags: HMW
HStem: 0 22G<0 61 0 0 410 486 410 410> 696 20G<0 61 61 61 345 422 422 422>
VStem: 0 61<0 404 0 421 421 717>
LayerCount: 2
Fore
SplineSet
422 717 m 1
 132 413 l 1
 486 0 l 1
 410 0 l 1
 61 404 l 1
 61 0 l 1
 0 0 l 1
 0 717 l 1
 61 717 l 1
 61 421 l 1
 345 717 l 1
 422 717 l 1
EndSplineSet
EndChar

StartChar: L
Encoding: 76 76 11
Width: 415
Flags: HMW
HStem: 0 60<61 375 61 375> 696 20G<0 61 61 61>
VStem: 0 61<60 717 60 717 60 717>
LayerCount: 2
Fore
SplineSet
375 0 m 1
 0 0 l 1
 0 717 l 1
 61 717 l 1
 61 60 l 1
 375 60 l 1
 375 0 l 1
EndSplineSet
EndChar

StartChar: M
Encoding: 77 77 12
Width: 699
Flags: HMW
HStem: 0 22G<0 61 0 0 575 637 575 575> 705 20G<0 0 637 637>
VStem: 0 60<488 488 488 725> 575 60
LayerCount: 2
Fore
SplineSet
637 725 m 1
 637 0 l 1
 575 0 l 1
 577 487 l 1
 573 478 l 1
 318 -9 l 1
 63 478 l 1
 60 488 l 1
 61 0 l 1
 0 0 l 1
 0 725 l 1
 316 127 l 1
 318 121 l 1
 321 127 l 1
 637 725 l 1
EndSplineSet
EndChar

StartChar: N
Encoding: 78 78 13
Width: 570
Flags: HMW
HStem: -2 22G<509 509> 0 22G<0 61 0 0> 696 20G<450 509 509 509> 702 20G<0 0>
VStem: 0 61<0 546 0 723> 450 59<157 717 -2 717>
LayerCount: 2
Fore
SplineSet
509 717 m 1x6c
 509 -2 l 1x9c
 61 546 l 1
 61 0 l 1
 0 0 l 1
 0 723 l 1x5c
 450 157 l 1
 450 717 l 1
 509 717 l 1x6c
EndSplineSet
EndChar

StartChar: O
Encoding: 79 79 14
Width: 742
Flags: HMW
HStem: -4 61<273 437 273 461> 670 61<273 437>
VStem: -4 61<280 446 280 460> 653 61<281 446>
LayerCount: 2
Fore
SplineSet
355 -4 m 0
 171 -4 -4 145 -4 364 c 0
 -4 558 145 731 355 731 c 0
 535 731 715 585 715 364 c 0
 715 176 566 -4 355 -4 c 0
355 670 m 0
 190 670 57 530 57 364 c 0
 57 197 190 57 355 57 c 0
 518 57 653 198 653 364 c 0
 653 530 518 670 355 670 c 0
EndSplineSet
Substitution2: "'salt' Stylistic Alternatives in Latin lookup 2 subtable" O.alt
EndChar

StartChar: P
Encoding: 80 80 15
Width: 483
Flags: HMW
HStem: 0 22G<0 0 0 60> 176 59<107 176 107 193> 667 59<107 176>
VStem: 0 60<0 181 243 658> 333 59<391 510>
LayerCount: 2
Fore
SplineSet
0 0 m 1
 0 717 l 1
 0 717 92 726 117 726 c 0
 269 726 392 603 392 451 c 0
 392 299 269 176 117 176 c 0
 98 176 77 178 60 181 c 1
 60 0 l 1
 0 0 l 1
117 667 m 0
 98 667 77 663 60 658 c 1
 60 243 l 1
 77 238 98 236 117 236 c 0
 236 236 333 332 333 451 c 0
 333 570 236 667 117 667 c 0
EndSplineSet
EndChar

StartChar: Q
Encoding: 81 81 16
Width: 751
Flags: HMW
HStem: -201 61<571 651 571 657> -10 59 662 61<275 439>
VStem: -2 61<314 438 314 464> 655 61<272 438>
LayerCount: 2
Fore
SplineSet
774 -95 m 1
 809 -145 l 1
 756 -182 693 -201 622 -201 c 0
 416 -201 352 -53 335 -12 c 1
 134 3 -2 171 -2 355 c 0
 -2 573 172 723 357 723 c 0
 568 723 717 543 717 355 c 0
 717 150 565 16 401 -10 c 1
 442 -93 522 -139 622 -139 c 0
 680 -139 731 -125 774 -95 c 1
146 138 m 0
 202 81 277 49 357 49 c 0
 520 49 655 189 655 355 c 0
 655 521 520 662 357 662 c 0
 192 662 59 521 59 355 c 0
 59 273 90 196 146 138 c 0
EndSplineSet
Substitution2: "'salt' Stylistic Alternatives in Latin lookup 2 subtable" Q.alt
EndChar

StartChar: R
Encoding: 82 82 17
Width: 461
Flags: HMW
HStem: 0 22G<0 0 0 60 327 327 327 398> 176 59<107 132> 667 59<107 176>
VStem: 0 60<0 181 243 658> 333 59<401 510>
LayerCount: 2
Fore
SplineSet
0 0 m 1
 0 717 l 1
 0 717 92 726 117 726 c 0
 269 726 392 603 392 451 c 0
 392 353 340 266 263 218 c 1
 398 0 l 1
 327 0 l 1
 206 190 l 1
 177 180 148 176 117 176 c 0
 98 176 77 178 60 181 c 1
 60 0 l 1
 0 0 l 1
117 667 m 0
 98 667 77 663 60 658 c 1
 60 243 l 1
 77 238 98 236 117 236 c 0
 236 236 333 332 333 451 c 0
 333 570 236 667 117 667 c 0
EndSplineSet
Substitution2: "'salt' Stylistic Alternatives in Latin lookup 2 subtable" R.alt
EndChar

StartChar: S
Encoding: 83 83 18
Width: 462
Flags: HMW
HStem: -1 61<172 245 172 265> 655 61<182 243>
VStem: -1 62<170 213 170 213> 38 62<457 573 457 608> 328 62<547 573> 361 62<170 238>
LayerCount: 2
Fore
SplineSet
213 -1 m 0xe4
 93 -1 -1 96 -1 213 c 1
 61 213 l 1
 61 127 131 60 213 60 c 0
 278 60 361 135 361 206 c 0xe4
 361 271 336 300 318 315 c 0
 230 386 38 363 38 539 c 0
 38 678 143 717 215 717 c 0
 306 717 390 632 390 547 c 1
 328 547 l 1xd8
 328 599 271 655 215 655 c 0
 148 655 100 609 100 539 c 0xd4
 100 376 424 473 424 206 c 0
 424 106 316 -1 213 -1 c 0xe4
EndSplineSet
Substitution2: "'salt' Stylistic Alternatives in Latin lookup 2 subtable" S.alt
EndChar

StartChar: T
Encoding: 84 84 19
Width: 577
Flags: HMW
HStem: 0 22G<229 290 229 229> 656 60<0 229 0 513 290 513 290 290>
VStem: 229 60<0 656 0 656>
LayerCount: 2
Fore
SplineSet
513 656 m 1
 290 656 l 1
 290 0 l 1
 229 0 l 1
 229 656 l 1
 0 656 l 1
 0 717 l 1
 513 717 l 1
 513 656 l 1
EndSplineSet
EndChar

StartChar: U
Encoding: 85 85 20
Width: 575
Flags: HMW
HStem: -2 60<196 295 196 312> 696 20G<0 60 60 60 431 492 492 492>
VStem: 0 60<236 717 236 717 236 717> 431 60<236 717 236 717>
LayerCount: 2
Fore
SplineSet
246 -2 m 0
 113 -2 4 102 0 234 c 1
 0 717 l 1
 60 717 l 1
 60 236 l 1
 64 137 146 58 246 58 c 0
 345 58 427 137 431 236 c 1
 431 717 l 1
 492 717 l 1
 492 236 l 1
 488 104 378 -2 246 -2 c 0
EndSplineSet
EndChar

StartChar: V
Encoding: 86 86 21
Width: 561
Flags: HMW
HStem: 0 22G<263 263> 696 20G<0 63 63 63 463 526 526 526>
VStem: 0 526<717 717>
LayerCount: 2
Fore
SplineSet
63 717 m 1
 261 179 l 1
 263 171 l 1
 265 179 l 1
 463 717 l 1
 526 717 l 1
 263 0 l 1
 0 717 l 1
 63 717 l 1
EndSplineSet
EndChar

StartChar: W
Encoding: 87 87 22
Width: 974
Flags: HMW
HStem: 0 22G<263 263 663 663> 696 20G<0 63 63 63 463 463 862 926 926 926>
VStem: 0 926<717 717>
LayerCount: 2
Fore
SplineSet
63 717 m 1
 261 179 l 1
 263 171 l 1
 265 179 l 1
 463 717 l 1
 660 179 l 1
 663 171 l 1
 665 179 l 1
 862 717 l 1
 926 717 l 1
 663 0 l 1
 464 542 l 1
 463 546 l 1
 462 542 l 1
 263 0 l 1
 0 717 l 1
 63 717 l 1
EndSplineSet
EndChar

StartChar: X
Encoding: 88 88 23
Width: 550
Flags: HMW
HStem: 0 22G<-1 -1 -1 68 445 445 445 514> 696 20G<-1 67 67 67 446 514 514 514>
VStem: -1 515<0 0>
LayerCount: 2
Fore
SplineSet
-1 0 m 1
 222 357 l 1
 -1 717 l 1
 67 717 l 1
 255 415 l 1
 256 411 l 1
 257 415 l 1
 446 717 l 1
 514 717 l 1
 291 357 l 1
 514 0 l 1
 445 0 l 1
 257 301 l 1
 256 305 l 1
 255 301 l 1
 68 0 l 1
 -1 0 l 1
EndSplineSet
EndChar

StartChar: Y
Encoding: 89 89 24
Width: 514
Flags: HMW
HStem: 0 22G<226 287 226 226> 696 20G<-1 67 67 67 446 514 514 514>
VStem: 226 60<0 350 0 350>
LayerCount: 2
Fore
SplineSet
514 717 m 1
 287 350 l 1
 287 0 l 1
 226 0 l 1
 226 350 l 1
 -1 717 l 1
 67 717 l 1
 255 415 l 1
 256 411 l 1
 257 415 l 1
 446 717 l 1
 514 717 l 1
EndSplineSet
EndChar

StartChar: Z
Encoding: 90 90 25
Width: 646
Flags: HMW
HStem: 0 60<119 609 119 609> 656 60<7 482 7 603>
VStem: -7 616<0 0>
LayerCount: 2
Fore
SplineSet
609 0 m 1
 -7 0 l 1
 480 655 l 1
 482 656 l 1
 7 656 l 1
 7 717 l 1
 603 717 l 1
 122 62 l 1
 119 60 l 1
 609 60 l 1
 609 0 l 1
EndSplineSet
EndChar

StartChar: acute
Encoding: 180 180 26
Width: 417
Flags: HMW
HStem: 720 103<135 284 135 284>
VStem: 135 148<720 823>
LayerCount: 2
Fore
SplineSet
284 823 m 1
 202 720 l 1
 135 720 l 1
 217 823 l 1
 284 823 l 1
EndSplineSet
EndChar

StartChar: grave
Encoding: 96 96 27
Width: 405
Flags: HMW
HStem: 720 103<114 196 114 262>
VStem: 114 148<720 823>
LayerCount: 2
Fore
SplineSet
196 720 m 1
 114 823 l 1
 180 823 l 1
 262 720 l 1
 196 720 l 1
EndSplineSet
EndChar

StartChar: dieresis
Encoding: 168 168 29
Width: 398
Flags: HMW
HStem: 719 61<77 138 77 138 220 282>
VStem: 77 61<719 780 719 780> 220 61<719 780 719 780>
LayerCount: 2
Fore
SplineSet
77 719 m 1
 77 780 l 1
 138 780 l 1
 138 719 l 1
 77 719 l 1
220 719 m 1
 220 780 l 1
 282 780 l 1
 282 719 l 1
 220 719 l 1
EndSplineSet
EndChar

StartChar: circumflex
Encoding: 710 710 30
Width: 669
Flags: HMW
HStem: 720 185<135 283 135 283 283 431 283 365>
VStem: 135 296<720 720>
LayerCount: 2
Fore
SplineSet
365 720 m 1
 283 822 l 1
 202 720 l 1
 135 720 l 1
 283 905 l 1
 431 720 l 1
 365 720 l 1
EndSplineSet
EndChar

StartChar: asciicircum
Encoding: 94 94 31
Width: 641
Flags: HMW
HStem: 307 406<8 321 8 321 321 634 321 567>
VStem: 8 626<307 307>
LayerCount: 2
Fore
SplineSet
567 307 m 1
 321 630 l 1
 75 307 l 1
 8 307 l 1
 321 713 l 1
 634 307 l 1
 567 307 l 1
EndSplineSet
EndChar

StartChar: cedilla
Encoding: 184 184 32
Width: 429
Flags: HMW
HStem: -261 292<199 199 199 199>
VStem: 255 61<-154 -115 -198 -113>
LayerCount: 2
Fore
SplineSet
199 -261 m 1
 199 -261 l 1
 199 -200 l 1
 237 -201 255 -166 255 -142 c 0
 255 -84 201 -86 199 -85 c 1
 170 -43 l 1
 199 31 l 1
 256 8 l 1
 241 -31 l 1
 285 -47 316 -87 316 -142 c 0
 316 -253 208 -261 199 -261 c 1
EndSplineSet
EndChar

StartChar: A_I
Encoding: 65537 -1 33
Width: 624
Flags: HMW
HStem: 366 52<139 455 139 494 98 455>
VStem: 276 57<2 355 2 355>
LayerCount: 2
Fore
SplineSet
334 355 m 1
 334 2 l 1
 276 2 l 1
 276 355 l 1
 334 355 l 1
0 327 m 1
 298 715 l 1
 596 327 l 1
 522 327 l 1
 522 327 511 342 494 366 c 1
 98 366 l 1
 80 342 69 327 69 327 c 1
 0 327 l 1
298 630 m 1
 139 418 l 1
 455 418 l 1
 298 630 l 1
EndSplineSet
Ligature2: "'salt' Stylistic Alternatives in Latin lookup 3 subtable" A.alt I
Ligature2: "'liga' Standard Ligatures in Latin lookup 1 subtable" A I
EndChar

StartChar: O_U
Encoding: 65538 -1 34
Width: 576
Flags: HMW
HStem: -2 60<196 295 196 312> 307 55<197 295 197 316> 658 56<198 296>
VStem: -3 65<471 551 471 567> 0 60<236 336 236 336 236 336> 431 60<236 336 236 336> 433 63<471 551>
LayerCount: 2
Fore
SplineSet
247 715 m 0xf2
 385 715 497 623 497 511 c 0
 497 399 385 307 247 307 c 0
 110 307 -3 399 -3 511 c 0
 -3 623 110 715 247 715 c 0xf2
247 658 m 0
 149 658 61 591 61 511 c 0
 61 430 148 362 246 362 c 0
 344 362 433 430 433 511 c 0
 433 591 345 658 247 658 c 0
246 -2 m 0xec
 113 -2 4 102 0 234 c 1
 0 336 l 1
 60 336 l 1
 60 236 l 1
 64 137 146 58 246 58 c 0
 345 58 427 137 431 236 c 1
 431 336 l 1
 492 336 l 1
 492 236 l 1
 488 104 378 -2 246 -2 c 0xec
EndSplineSet
Ligature2: "'liga' Standard Ligatures in Latin lookup 1 subtable" O U
EndChar

StartChar: A_N
Encoding: 65539 -1 35
Width: 631
Flags: HMW
HStem: -1 22G<0 68 0 0 564 564> 403 46<134 429 134 465 96 429> 698 20G<283 283>
VStem: 0 68<-1 244 -1 340> 498 67<86 340 -1 340>
LayerCount: 2
Fore
SplineSet
564 340 m 1
 564 -1 l 1
 68 244 l 1
 68 -1 l 1
 0 -1 l 1
 0 340 l 1
 498 86 l 1
 498 340 l 1
 564 340 l 1
0 364 m 1
 283 719 l 1
 565 364 l 1
 495 364 l 1
 495 364 481 381 465 403 c 1
 96 403 l 1
 79 381 66 364 66 364 c 1
 0 364 l 1
283 639 m 1
 134 450 l 1
 429 450 l 1
 283 639 l 1
EndSplineSet
Ligature2: "'liga' Standard Ligatures in Latin lookup 1 subtable" A N
EndChar

StartChar: O_N
Encoding: 65540 -1 36
Width: 578
Flags: HMW
HStem: -1 22G<0 59 0 0 501 501> 307 55<197 295 197 316> 658 56<198 296>
VStem: -3 65<471 551 471 567> 0 59<-1 244 -1 340> 433 63<471 551> 441 59<86 340 -1 340>
LayerCount: 2
Fore
SplineSet
247 715 m 0xf4
 385 715 497 623 497 511 c 0
 497 399 385 307 247 307 c 0
 110 307 -3 399 -3 511 c 0
 -3 623 110 715 247 715 c 0xf4
247 658 m 0
 149 658 61 591 61 511 c 0
 61 430 148 362 246 362 c 0
 344 362 433 430 433 511 c 0
 433 591 345 658 247 658 c 0
501 340 m 1xea
 501 -1 l 1
 59 244 l 1
 59 -1 l 1
 0 -1 l 1
 0 340 l 1
 441 86 l 1
 441 340 l 1
 501 340 l 1xea
EndSplineSet
Ligature2: "'liga' Standard Ligatures in Latin lookup 1 subtable" O N
EndChar

StartChar: U_N
Encoding: 65541 -1 37
Width: 641
Flags: HMW
HStem: -1 22G<0 68 0 0 564 564> 354 65<223 337 223 356> 697 20G<1 70 70 70 493 561 561 561>
VStem: 0 68<-1 244 -1 340> 493 69<609 718 609 718> 498 67<86 340 -1 340>
LayerCount: 2
Fore
SplineSet
564 340 m 1xf4
 564 -1 l 1
 68 244 l 1
 68 -1 l 1
 0 -1 l 1
 0 340 l 1
 498 86 l 1
 498 340 l 1
 564 340 l 1xf4
281 354 m 0
 129 354 5 466 1 608 c 1
 1 718 l 1
 70 718 l 1
 70 609 l 1
 74 503 166 419 281 419 c 0
 395 419 488 503 493 609 c 1
 493 718 l 1
 561 718 l 1
 561 609 l 1xf8
 556 467 432 354 281 354 c 0
EndSplineSet
Ligature2: "'liga' Standard Ligatures in Latin lookup 1 subtable" U N
EndChar

StartChar: O_I
Encoding: 418 418 38
Width: 504
Flags: HMW
HStem: 352 49<180 266 180 287> 665 50<181 267>
VStem: -3 66<498 569 498 583> 197 61<2 312 2 312> 387 66<498 569>
LayerCount: 2
Fore
SplineSet
224 715 m 0
 350 715 453 633 453 534 c 0
 453 435 350 352 224 352 c 0
 99 352 -3 435 -3 534 c 0
 -3 633 99 715 224 715 c 0
224 665 m 0
 138 665 62 605 62 534 c 0
 62 462 137 401 223 401 c 0
 309 401 387 462 387 534 c 0
 387 605 310 665 224 665 c 0
258 312 m 1
 258 2 l 1
 197 2 l 1
 197 312 l 1
 258 312 l 1
EndSplineSet
Ligature2: "'liga' Standard Ligatures in Latin lookup 1 subtable" O I
EndChar

StartChar: E_A_U
Encoding: 65542 -1 39
Width: 489
Flags: HMW
HStem: -2 60<196 295 196 312> 271 8 497 52<0 489 51 489 51 489> 581 52<51 489 51 489> 665 52<51 489 51 51>
VStem: 0 51<549 581 633 665> 0 60<160 234> 431 60<161 236>
LayerCount: 2
Fore
SplineSet
246 -2 m 0xfd
 113 -2 0 56 0 234 c 1
 60 236 l 1
 60 84 146 58 246 58 c 0
 345 58 431 88 431 236 c 1
 492 236 l 1
 491 59 378 -2 246 -2 c 0xfd
0 497 m 1
 0 717 l 1
 489 717 l 1
 489 665 l 1
 51 665 l 1xfb
 51 633 l 1
 489 633 l 1
 489 581 l 1
 51 581 l 1
 51 549 l 1
 489 549 l 1
 489 497 l 1
 0 497 l 1
248 486 m 1
 -1 271 l 1
 70 271 l 1
 80 280 l 1
 409 280 l 1
 414 275 418 271 418 271 c 1
 490 271 l 1
 248 486 l 1
248 419 m 1
 356 325 l 1
 135 325 l 1
 248 419 l 1
EndSplineSet
Ligature2: "'liga' Standard Ligatures in Latin lookup 1 subtable" E A U
EndChar

StartChar: E.alt
Encoding: 65543 -1 40
Width: 468
Flags: HMW
HStem: 0 52<0 383 0 383> 332 52<0 383 0 383> 665 52<0 383 0 383>
VStem: 0 383<0 52 0 52 332 384 0 384 665 717>
LayerCount: 2
Fore
SplineSet
0 665 m 1
 0 717 l 1
 383 717 l 1
 383 665 l 1
 0 665 l 1
0 0 m 1
 0 52 l 1
 383 52 l 1
 383 0 l 1
 0 0 l 1
0 332 m 1
 0 384 l 1
 383 384 l 1
 383 332 l 1
 0 332 l 1
EndSplineSet
EndChar

StartChar: AE
Encoding: 198 198 41
Width: 862
Flags: HMW
HStem: 0 52<445 766 445 766> 332 52<290 383 290 383 260 383 444 766> 665 52<444 766 444 444>
VStem: 383 61<0 332 332 332 384 558 558 558>
LayerCount: 2
Fore
SplineSet
0 0 m 1
 408 717 l 1
 766 717 l 1
 766 665 l 1
 444 665 l 1
 444 384 l 1
 766 384 l 1
 766 332 l 1
 444 332 l 1
 445 52 l 1
 766 52 l 1
 766 0 l 1
 383 0 l 1
 383 332 l 1
 260 332 l 1
 74 0 l 1
 0 0 l 1
383 384 m 1
 383 558 l 1
 381 547 l 1
 290 384 l 1
 383 384 l 1
EndSplineSet
EndChar

StartChar: OE
Encoding: 338 338 42
Width: 1050
Flags: HMW
HStem: 0 49<401 417 259 934 401 401> 0 52<524 934 524 934> 332 52<680 934 680 934> 665 52<521 934 521 521> 666 55<259 347 243 417>
VStem: -5 58<273 442 273 458> 624 56<332 332 332 384 332 442>
LayerCount: 2
Fore
SplineSet
338 721 m 0x6e
 355 721 373 719 390 717 c 1
 934 717 l 1
 934 665 l 1
 521 665 l 1x76
 610 605 672 502 680 384 c 1
 934 384 l 1
 934 332 l 1
 680 332 l 1
 672 214 612 112 524 52 c 1
 934 52 l 1
 934 0 l 1
 401 0 l 1
 381 -4 360 -6 338 -6 c 0
 149 -6 -5 156 -5 357 c 0
 -5 558 149 721 338 721 c 0x6e
338 666 m 0xb6
 179 666 53 526 53 357 c 0
 53 188 179 49 338 49 c 0
 497 49 624 188 624 357 c 0
 624 526 497 666 338 666 c 0xb6
EndSplineSet
EndChar

StartChar: endash
Encoding: 8211 8211 43
Width: 405
Flags: HMW
HStem: 307 60<0 372 0 372>
VStem: 0 372<307 368 307 368>
LayerCount: 2
Fore
SplineSet
0 368 m 1
 372 368 l 1
 372 307 l 1
 0 307 l 1
 0 368 l 1
EndSplineSet
EndChar

StartChar: emdash
Encoding: 8212 8212 44
Width: 788
Flags: HMW
HStem: 307 60<0 727 0 727>
VStem: 0 727<307 368 307 368>
LayerCount: 2
Fore
SplineSet
0 368 m 1
 727 368 l 1
 727 307 l 1
 0 307 l 1
 0 368 l 1
EndSplineSet
EndChar

StartChar: hyphen
Encoding: 45 45 45
Width: 247
Flags: HMW
HStem: 307 60<0 207 0 207>
VStem: 0 207<307 368 307 368>
LayerCount: 2
Fore
SplineSet
0 368 m 1
 207 368 l 1
 207 307 l 1
 0 307 l 1
 0 368 l 1
EndSplineSet
EndChar

StartChar: underscore
Encoding: 95 95 46
Width: 417
Flags: HMW
HStem: -60 60<0 418 0 418>
VStem: 0 418<-60 0 -60 0>
LayerCount: 2
Fore
SplineSet
0 0 m 1
 418 0 l 1
 418 -60 l 1
 0 -60 l 1
 0 0 l 1
EndSplineSet
EndChar

StartChar: zero
Encoding: 48 48 47
Width: 607
Flags: HMW
HStem: -1 63<221 340 221 360> 246 72<272 291> 504 65<221 340>
VStem: -2 68<223 343 223 362> 246 72<272 291> 497 70<223 343>
LayerCount: 2
Fore
SplineSet
282 568 m 0
 439 568 566 442 566 284 c 0
 566 126 439 -1 282 -1 c 0
 125 -1 -2 126 -2 284 c 0
 -2 442 125 568 282 568 c 0
281 504 m 0
 162 504 66 404 66 283 c 0
 66 163 162 62 281 62 c 0
 401 62 497 163 497 283 c 0
 497 404 401 504 281 504 c 0
246 282 m 0
 246 301 263 317 282 317 c 0
 301 317 317 301 317 282 c 0
 317 263 301 246 282 246 c 0
 263 246 246 263 246 282 c 0
EndSplineSet
EndChar

StartChar: one
Encoding: 49 49 48
Width: 194
Flags: HMW
HStem: 0 22G<74 133 74 74> 487 88<-1 133 -1 133>
VStem: 74 59<0 505 505 505 0 575>
LayerCount: 2
Fore
SplineSet
-1 487 m 1
 74 575 l 1
 133 575 l 1
 133 0 l 1
 74 0 l 1
 74 505 l 1
 58 487 l 1
 -1 487 l 1
EndSplineSet
EndChar

StartChar: three
Encoding: 51 51 49
Width: 484
Flags: HMW
HStem: -200 61<193 252> 514 61<184 261>
VStem: -1 61<-3 41> 23 61<366 411 366 428> 360 61<340 411> 384 61<-3 58 -3 90>
LayerCount: 2
Fore
SplineSet
380 187 m 0xd8
 422 144 445 88 445 28 c 0
 445 -32 422 -90 380 -133 c 0
 338 -176 281 -200 222 -200 c 0
 163 -200 107 -176 65 -133 c 0
 23 -90 -1 -32 -1 28 c 0
 -1 56 4 83 14 109 c 1
 82 109 l 1
 68 84 60 57 60 28 c 0
 60 -63 133 -138 222 -138 c 0
 311 -138 384 -63 384 28 c 0xe4
 384 152 262 214 262 214 c 1
 262 214 360 273 360 372 c 0
 360 451 299 514 222 514 c 0
 145 514 84 451 84 372 c 0
 84 360 85 347 88 336 c 1
 26 336 l 1
 24 347 23 360 23 372 c 0
 23 485 111 575 222 575 c 0
 333 575 422 485 422 372 c 0
 422 309 398 252 353 214 c 1
 364 207 371 197 380 187 c 0xd8
EndSplineSet
EndChar

StartChar: two
Encoding: 65544 -1 50
Width: 458
Flags: HMW
HStem: 0 61<146 423 146 423> 199 61<191 196> 513 61<172 256>
VStem: 9 61<334 392> 353 61<333 404>
LayerCount: 2
Fore
SplineSet
423 61 m 1
 423 0 l 1
 18 0 l 1
 8 59 l 1
 8 59 99 101 186 155 c 0
 324 240 353 311 353 355 c 0
 353 452 300 513 212 513 c 0
 127 513 71 451 71 367 c 0
 71 302 136 263 196 260 c 1
 191 199 l 1
 88 206 9 277 9 367 c 0
 9 417 26 469 57 506 c 0
 83 537 132 574 212 574 c 0
 334 574 415 484 415 355 c 0
 415 253 322 157 157 65 c 0
 156 64 147 62 146 61 c 1
 423 61 l 1
EndSplineSet
EndChar

StartChar: four
Encoding: 52 52 51
Width: 466
Flags: HMW
HStem: 70 61<81 341>
VStem: -3 428<70 131>
LayerCount: 2
Fore
SplineSet
308 -249 m 1
 249 -230 l 1
 341 70 l 1
 -3 70 l 1
 155 575 l 1
 220 575 l 1
 81 131 l 1
 425 131 l 1
 308 -249 l 1
EndSplineSet
EndChar

StartChar: five
Encoding: 53 53 52
Width: 575
Flags: HMW
HStem: -178 61<238 291 238 300> 257 61<238 291> 514 61<170 471 170 170>
VStem: 5 61<45 71 45 71> 463 61<44 96>
LayerCount: 2
Fore
SplineSet
264 -178 m 0
 194 -178 130 -153 82 -109 c 0
 33 -63 5 1 5 71 c 1
 67 71 l 1
 67 19 87 -28 124 -63 c 0
 161 -97 211 -117 264 -117 c 0
 318 -117 369 -97 406 -63 c 0
 443 -28 463 19 463 70 c 0
 463 122 443 169 406 204 c 0
 369 238 318 257 264 257 c 0
 177 257 105 187 104 187 c 2
 52 214 l 1
 119 575 l 1
 480 575 l 1
 471 514 l 1
 170 514 l 1
 127 281 l 1
 126 276 l 1
 128 280 l 1
 164 300 211 318 264 318 c 0
 334 318 399 294 447 249 c 0
 496 203 524 140 524 70 c 0
 524 1 496 -63 447 -109 c 0
 399 -154 335 -178 264 -178 c 0
EndSplineSet
EndChar

StartChar: six
Encoding: 54 54 53
Width: 524
Flags: HMW
HStem: -6 61<208 273> 419 61<233 273 233 291> 696 20G<300 377 377 377>
VStem: -3 61<205 264> 423 61<205 270 205 288>
LayerCount: 2
Fore
SplineSet
413 410 m 0
 459 364 484 303 484 238 c 0
 484 172 459 111 413 66 c 0
 367 20 307 -6 241 -6 c 0
 176 -6 115 20 69 66 c 0
 23 111 -3 172 -3 238 c 0
 -3 290 13 340 44 381 c 1
 44 381 l 1
 300 717 l 1
 377 717 l 1
 194 476 l 1
 209 479 226 480 241 480 c 0
 307 480 367 456 413 410 c 0
241 55 m 0
 341 55 423 138 423 238 c 0
 423 338 341 419 241 419 c 0
 141 419 58 338 58 238 c 0
 58 138 141 55 241 55 c 0
EndSplineSet
EndChar

StartChar: eight
Encoding: 56 56 54
Width: 462
Flags: HMW
HStem: -5 56<168 251 168 268> 343 57<203 217> 663 59<174 246>
VStem: -1 61<160 235 160 238> 18 61<501 568 497 585> 340 61<501 568> 360 61<160 235>
LayerCount: 2
Fore
SplineSet
325 379 m 1xf2
 383 341 422 276 422 201 c 0
 422 85 327 -5 210 -5 c 0
 93 -5 -1 85 -1 201 c 0xf2
 -1 276 37 341 95 379 c 1
 49 414 18 470 18 532 c 0
 18 637 105 722 210 722 c 0
 315 722 401 637 401 532 c 0xec
 401 470 371 414 325 379 c 1xf2
210 663 m 0xec
 138 663 80 604 80 532 c 0
 80 460 138 400 210 400 c 0
 282 400 340 460 340 532 c 0
 340 604 282 663 210 663 c 0xec
210 51 m 0xf2
 293 51 360 119 360 201 c 0
 360 270 314 330 251 347 c 1
 238 345 224 343 210 343 c 0
 196 343 182 345 169 347 c 1
 107 330 60 270 60 201 c 0
 60 119 127 51 210 51 c 0xf2
EndSplineSet
EndChar

StartChar: seven
Encoding: 55 55 55
Width: 510
Flags: HMW
HStem: 514 61<0 389 0 434>
VStem: 0 463<534 534 534 575 534 575>
LayerCount: 2
Fore
SplineSet
463 534 m 1
 174 -216 l 1
 109 -216 l 1
 389 514 l 1
 0 514 l 1
 0 575 l 1
 434 575 l 1
 463 534 l 1
EndSplineSet
EndChar

StartChar: nine
Encoding: 57 57 56
Width: 528
Flags: HMW
HStem: 90 61<209 249> 515 61<209 274 209 292>
VStem: -2 61<301 366> 424 61<307 366 307 383>
LayerCount: 2
Fore
SplineSet
70 161 m 0
 24 207 -2 268 -2 333 c 0
 -2 399 24 460 70 505 c 0
 116 551 176 577 242 577 c 0
 307 577 368 551 414 505 c 0
 460 460 485 399 485 333 c 0
 485 281 469 230 438 189 c 1
 438 189 l 1
 171 -161 l 1
 94 -161 l 1
 289 94 l 1
 274 91 257 90 242 90 c 0
 176 90 116 115 70 161 c 0
242 515 m 0
 142 515 59 433 59 333 c 0
 59 233 142 152 242 152 c 0
 342 152 424 233 424 333 c 0
 424 433 342 515 242 515 c 0
EndSplineSet
EndChar

StartChar: ampersand
Encoding: 38 38 57
Width: 602
Flags: HMW
HStem: -3 59<190 243 190 266> 327 61<383 582 383 455 516 516 516 582> 659 59<166 237>
VStem: -4 59<154 243 154 252> 35 59<526 572 526 598> 318 59<520 585> 383 199<327 388 327 388> 455 61<327 327>
LayerCount: 2
Fore
SplineSet
383 327 m 1xf2
 383 388 l 1
 582 388 l 1
 582 327 l 1xea
 516 327 l 1
 510 250 493 186 461 129 c 1
 556 35 l 1
 515 -7 l 1
 426 81 l 1
 375 26 306 -3 226 -3 c 0
 115 -3 -4 78 -4 209 c 0xf5
 -4 296 31 348 106 396 c 1
 75 428 35 489 35 557 c 0
 35 638 120 719 206 719 c 0
 301 719 378 646 378 557 c 0
 378 463 303 416 213 380 c 0
 212 379 210 379 209 378 c 1
 417 174 l 1
 440 215 451 268 455 327 c 1xed
 383 327 l 1xf2
94 557 m 0
 94 495 145 438 162 423 c 1
 245 461 318 482 318 557 c 0xf4
 318 612 267 659 206 659 c 0
 127 659 94 587 94 557 c 0
319 76 m 0xf4
 342 87 364 103 382 122 c 1
 150 350 l 1
 87 317 55 278 55 209 c 0
 55 99 154 56 226 56 c 0
 259 56 290 63 319 76 c 0xf4
EndSplineSet
EndChar

StartChar: amperstand.alt
Encoding: 65545 -1 58
Width: 645
Flags: HMW
HStem: -4 60<194 300 194 314> 279 61<346 432 346 432 286 432 494 603> 662 61<186 266>
VStem: -2 61<196 280> 15 61<489 554 488 572> 377 61<514 554> 432 61<241 279 176 279 340 426 426 426>
LayerCount: 2
Fore
SplineSet
494 340 m 1xf2
 603 340 l 1
 603 279 l 1
 494 279 l 1
 494 241 l 2
 494 111 382 -4 247 -4 c 0
 109 -4 -2 110 -2 248 c 0xf2
 -2 311 33 366 56 396 c 1
 40 421 15 464 15 514 c 0
 15 630 111 723 226 723 c 0
 339 723 438 627 438 514 c 1
 377 514 l 1
 377 594 306 662 226 662 c 0
 145 662 77 595 77 514 c 0
 77 463 119 416 119 416 c 1
 138 394 l 1xec
 118 374 l 2
 118 373 59 314 59 248 c 0
 59 144 142 56 247 56 c 0
 352 56 432 147 432 241 c 2
 432 279 l 1
 286 279 l 1
 346 340 l 1
 432 340 l 1
 432 426 l 1
 494 486 l 1
 494 340 l 1xf2
EndSplineSet
EndChar

StartChar: parenleft
Encoding: 40 40 59
Width: 154
Flags: HMW
HStem: -4 22G<71 135 71 71> 702 20G<70 135 135 135>
VStem: 7 61<287 461>
LayerCount: 2
Fore
SplineSet
135 723 m 1
 125 696 69 543 69 381 c 0
 69 194 123 29 135 -4 c 1
 71 -4 l 1
 53 51 7 194 7 381 c 0
 7 541 52 673 70 723 c 1
 135 723 l 1
EndSplineSet
EndChar

StartChar: parenright
Encoding: 41 41 60
Width: 152
Flags: HMW
HStem: -4 22G<-2 62 -2 -2> 702 20G<-2 63 63 63>
VStem: 65 61<287 461 287 462>
LayerCount: 2
Fore
SplineSet
-2 723 m 1
 63 723 l 1
 81 673 126 541 126 381 c 0
 126 194 80 51 62 -4 c 1
 -2 -4 l 1
 10 29 65 194 65 381 c 0
 65 543 8 696 -2 723 c 1
EndSplineSet
EndChar

StartChar: L_L
Encoding: 63167 63167 61
Width: 524
Flags: HMW
HStem: 0 60<60 501 60 501> 92 60<151 501 151 501> 696 20G<0 60 60 60 90 151 151 151>
VStem: 0 60<60 717 60 717 60 717> 90 60<153 717 153 717 153 717>
LayerCount: 2
Fore
SplineSet
501 92 m 1
 90 92 l 1
 90 717 l 1
 151 717 l 1
 151 153 l 1xf8
 501 153 l 1
 501 92 l 1
501 0 m 1
 0 0 l 1
 0 717 l 1
 60 717 l 1
 60 60 l 1xf0
 501 60 l 1
 501 0 l 1
EndSplineSet
Ligature2: "'liga' Standard Ligatures in Latin lookup 0 subtable" L L
EndChar

StartChar: bracketleft
Encoding: 91 91 62
Width: 153
Flags: HMW
HStem: 0 61<61 119 61 119> 655 61<61 119 61 61>
VStem: 0 61<61 655 61 717>
LayerCount: 2
Fore
SplineSet
119 0 m 1
 0 0 l 1
 0 717 l 1
 119 717 l 1
 119 655 l 1
 61 655 l 1
 61 61 l 1
 119 61 l 1
 119 0 l 1
EndSplineSet
EndChar

StartChar: bracketright
Encoding: 93 93 63
Width: 153
Flags: HMW
HStem: 0 61<0 57 0 57 0 119> 655 61<0 57 0 119>
VStem: 57 61<61 655 655 655>
LayerCount: 2
Fore
SplineSet
0 0 m 1
 0 61 l 1
 57 61 l 1
 57 655 l 1
 0 655 l 1
 0 717 l 1
 119 717 l 1
 119 0 l 1
 0 0 l 1
EndSplineSet
EndChar

StartChar: braceleft
Encoding: 123 123 64
Width: 153
Flags: HMW
HStem: 664 61<122 131> 705 20G<106 131>
VStem: 0 67<356 356 356 383 356 383> 50 61<72 73 73 268 443 635>
LayerCount: 2
Fore
SplineSet
131 53 m 1x50
 131 -8 l 1
 88 -8 50 31 50 72 c 2
 50 268 l 2x50
 50 296 10 324 0 330 c 1x60
 0 383 l 1
 16 392 50 419 50 443 c 2
 50 635 l 2
 50 687 82 725 131 725 c 1
 131 664 l 1
 114 664 112 649 112 635 c 2x90
 112 443 l 2
 112 406 89 376 67 356 c 0
 67 355 68 355 69 354 c 0
 97 327 112 298 112 268 c 2
 112 73 l 2
 112 67 128 55 132 53 c 1
 132 53 132 53 131 53 c 1x50
EndSplineSet
EndChar

StartChar: braceright
Encoding: 125 125 65
Width: 153
Flags: HMW
HStem: 664 61<0 9> 705 20G<0 25>
VStem: 19 61<73 268 443 635> 65 67<356 356>
LayerCount: 2
Fore
SplineSet
0 -8 m 1x60
 0 53 l 1
 -1 53 l 1
 3 55 19 67 19 73 c 2
 19 268 l 2
 19 298 34 327 62 354 c 0
 63 355 65 355 65 356 c 0
 43 376 19 406 19 443 c 2
 19 635 l 2
 19 649 17 664 0 664 c 1xa0
 0 725 l 1
 49 725 81 687 81 635 c 2
 81 443 l 2x60
 81 419 115 392 131 383 c 1x50
 131 330 l 1
 121 324 81 296 81 268 c 2
 81 72 l 2
 81 31 43 -8 0 -8 c 1x60
EndSplineSet
EndChar

StartChar: R.alt
Encoding: 65546 -1 66
Width: 547
Flags: HMW
HStem: -146 61<688 764 688 770> 0 22G<0 60 0 0> 176 59<107 131> 667 59<107 176>
VStem: 0 60<0 181 243 658> 333 59<401 510>
LayerCount: 2
Fore
SplineSet
908 -43 m 1
 935 -98 l 1
 870 -130 804 -146 736 -146 c 0
 627 -146 514 -105 404 -22 c 0
 299 58 226 152 200 188 c 1
 173 180 146 176 117 176 c 0
 98 176 77 178 60 181 c 1
 60 0 l 1
 0 0 l 1
 0 717 l 1
 0 717 92 726 117 726 c 0
 269 726 392 603 392 451 c 0
 392 353 340 266 263 218 c 1
 256 215 l 1
 286 177 351 95 442 27 c 1
 539 -47 640 -85 735 -85 c 0
 793 -85 852 -71 908 -43 c 1
60 243 m 1
 77 238 98 236 117 236 c 0
 236 236 333 332 333 451 c 0
 333 570 236 667 117 667 c 0
 98 667 77 663 60 658 c 1
 60 243 l 1
EndSplineSet
EndChar

StartChar: quotesingle
Encoding: 39 39 67
Width: 128
Flags: HMW
HStem: 520 197<50 62 0 112> 696 20G<50 112 112 112>
VStem: 0 112
LayerCount: 2
Fore
SplineSet
62 520 m 1xa0
 0 520 l 1
 50 717 l 1
 112 717 l 1
 62 520 l 1xa0
EndSplineSet
EndChar

StartChar: quoteright
Encoding: 8217 8217 68
Width: 135
Flags: HMW
HStem: 520 197<51 68 1 113> 696 20G<51 113 113 113>
VStem: 51 61<662 717>
LayerCount: 2
Fore
SplineSet
68 520 m 1xa0
 1 520 l 1
 11 547 51 607 51 717 c 1
 113 717 l 1
 113 593 86 570 68 520 c 1xa0
EndSplineSet
EndChar

StartChar: quoteleft
Encoding: 8216 8216 69
Width: 135
Flags: HMW
HStem: 520 197<46 62 1 113> 696 20G<46 113 113 113>
VStem: 1 61<520 575 520 582>
LayerCount: 2
Fore
SplineSet
46 717 m 1x60
 113 717 l 1
 103 690 62 630 62 520 c 1
 1 520 l 1xa0
 1 644 28 667 46 717 c 1x60
EndSplineSet
EndChar

StartChar: period
Encoding: 46 46 70
Width: 102
Flags: HMW
HStem: 0 60<0 62 0 62>
VStem: 0 62<0 60 0 60>
LayerCount: 2
Fore
SplineSet
0 60 m 1
 62 60 l 1
 62 0 l 1
 0 0 l 1
 0 60 l 1
EndSplineSet
EndChar

StartChar: colon
Encoding: 58 58 71
Width: 102
Flags: HMW
HStem: 0 60<0 61 0 61> 307 60<0 61 0 61>
VStem: 0 61<0 60 0 60 307 368>
LayerCount: 2
Fore
SplineSet
0 368 m 1
 61 368 l 1
 61 307 l 1
 0 307 l 1
 0 368 l 1
0 60 m 1
 61 60 l 1
 61 0 l 1
 0 0 l 1
 0 60 l 1
EndSplineSet
EndChar

StartChar: semicolon
Encoding: 59 59 72
Width: 102
Flags: HMW
HStem: -136 197<0 16 -50 61> 307 60<0 61 0 61>
VStem: 0 61<6 60 307 368>
LayerCount: 2
Fore
SplineSet
0 368 m 1
 61 368 l 1
 61 307 l 1
 0 307 l 1
 0 368 l 1
16 -136 m 1
 -50 -136 l 1
 -40 -109 0 -50 0 60 c 1
 61 60 l 1
 61 -64 34 -86 16 -136 c 1
EndSplineSet
EndChar

StartChar: comma
Encoding: 44 44 73
Width: 102
Flags: HMW
HStem: -136 197<0 16 -50 61>
VStem: 0 61<6 60>
LayerCount: 2
Fore
SplineSet
16 -136 m 1
 -50 -136 l 1
 -40 -109 0 -50 0 60 c 1
 61 60 l 1
 61 -64 34 -86 16 -136 c 1
EndSplineSet
EndChar

StartChar: quotedblleft
Encoding: 8220 8220 74
Width: 225
Flags: HMW
HStem: 520 197<46 62 1 113 110 110 110 113 155 171>
VStem: 1 61<520 575 520 582> 110 61<520 575 520 582>
LayerCount: 2
Fore
SplineSet
46 717 m 1
 113 717 l 1
 103 690 62 630 62 520 c 1
 1 520 l 1
 1 644 28 667 46 717 c 1
155 717 m 1
 221 717 l 1
 211 690 171 630 171 520 c 1
 110 520 l 1
 110 644 137 667 155 717 c 1
EndSplineSet
EndChar

StartChar: quotedblright
Encoding: 8221 8221 75
Width: 225
Flags: HMW
HStem: 520 197<48 65 -2 110 106 110 157 173 106 106>
VStem: 48 61<662 717> 157 61<662 717>
LayerCount: 2
Fore
SplineSet
173 520 m 1
 106 520 l 1
 116 547 157 607 157 717 c 1
 218 717 l 1
 218 593 191 570 173 520 c 1
65 520 m 1
 -2 520 l 1
 8 547 48 607 48 717 c 1
 110 717 l 1
 110 593 83 570 65 520 c 1
EndSplineSet
EndChar

StartChar: slash
Encoding: 47 47 76
Width: 347
Flags: HMW
HStem: 0 22G<0 63 0 0> 696 20G<285 348 348 348>
VStem: 0 348
LayerCount: 2
Fore
SplineSet
348 717 m 1
 63 0 l 1
 0 0 l 1
 285 717 l 1
 348 717 l 1
EndSplineSet
EndChar

StartChar: backslash
Encoding: 92 92 77
Width: 348
Flags: HMW
HStem: 0 22G<285 285 285 348> 696 20G<0 63 63 63>
VStem: 0 348
LayerCount: 2
Fore
SplineSet
285 0 m 1
 0 717 l 1
 63 717 l 1
 348 0 l 1
 285 0 l 1
EndSplineSet
EndChar

StartChar: bar
Encoding: 124 124 78
Width: 87
Flags: HMW
HStem: -55 823<0 60 0 60>
VStem: 0 60<-55 768 -55 768>
LayerCount: 2
Fore
SplineSet
60 768 m 1
 60 -55 l 1
 0 -55 l 1
 0 768 l 1
 60 768 l 1
EndSplineSet
EndChar

StartChar: S.alt
Encoding: 65547 -1 79
Width: 440
Flags: HMW
HStem: 1 61<177 209 177 229> 657 61<146 179>
VStem: 2 62<459 575 459 610> 326 62<172 240>
LayerCount: 2
Fore
SplineSet
177 1 m 1
 177 62 l 1
 240 62 326 136 326 208 c 0
 326 273 301 302 283 317 c 0
 194 389 2 365 2 541 c 0
 2 679 105 719 179 719 c 1
 179 657 l 1
 112 657 65 611 65 541 c 0
 65 378 388 476 388 208 c 0
 388 108 280 1 177 1 c 1
EndSplineSet
EndChar

StartChar: C_C
Encoding: 65548 -1 80
Width: 529
Flags: HMW
HStem: 0 61<250 346 250 352> 118 61<279 342 279 350> 536 61<279 342> 653 61<250 344>
VStem: -3 61<276 439 276 447> 103 61<308 407 308 422>
LayerCount: 2
Fore
SplineSet
323 0 m 0
 144 0 -3 162 -3 357 c 0
 -3 536 127 715 323 715 c 0
 377 715 431 700 478 671 c 1
 447 618 l 1
 408 641 366 653 323 653 c 0
 178 653 58 520 58 357 c 0
 58 194 178 61 323 61 c 0
 370 61 417 75 457 102 c 1
 490 51 l 1
 440 17 382 0 323 0 c 0
323 118 m 0
 202 118 103 228 103 357 c 0
 103 486 202 597 323 597 c 0
 377 597 429 575 470 535 c 1
 427 490 l 1
 397 519 361 536 323 536 c 0
 236 536 165 455 165 357 c 0
 165 259 236 179 323 179 c 0
 362 179 399 195 428 225 c 1
 472 182 l 1
 431 141 378 118 323 118 c 0
EndSplineSet
Ligature2: "'liga' Standard Ligatures in Latin lookup 0 subtable" C C
EndChar

StartChar: D_D
Encoding: 65549 -1 81
Width: 702
Flags: HMW
HStem: -2 52 670 57<142 238>
VStem: 0 58<60 662 60 715 60 715> 159 58<54 54 54 666> 444 61<297 437 297 437> 601 62<285 438>
LayerCount: 2
Fore
SplineSet
324 725 m 0
 441 720 664 633 664 359 c 0
 664 153 510 -9 298 -9 c 0
 128 -9 47 -2 0 -2 c 1
 0 715 l 1
 26 717 103 727 222 727 c 0
 254 727 287 727 324 725 c 0
217 54 m 1
 351 79 444 203 444 359 c 0
 444 515 350 641 217 666 c 1
 217 54 l 1
58 662 m 1
 58 60 l 1
 87 56 126 51 159 50 c 1
 159 670 l 1
 126 670 88 668 58 662 c 1
378 58 m 1
 506 90 601 209 601 359 c 0
 601 516 496 643 359 666 c 1
 439 612 506 515 506 359 c 0
 506 234 461 125 378 58 c 1
EndSplineSet
Ligature2: "'liga' Standard Ligatures in Latin lookup 0 subtable" D D
EndChar

StartChar: F_F
Encoding: 65550 -1 82
Width: 487
Flags: HMW
HStem: 0 22G<0 0 0 60 122 182 122 122> 332 52<60 114 60 114 182 425> 591 52<182 425 182 182> 665 52<60 425 60 60>
VStem: 0 60<0 332 384 665> 122 60<0 332 384 591>
LayerCount: 2
Fore
SplineSet
0 0 m 1
 0 717 l 1
 425 717 l 1
 425 665 l 1
 60 665 l 1
 60 384 l 1
 114 384 l 1
 114 332 l 1
 60 332 l 1
 60 0 l 1
 0 0 l 1
122 0 m 1
 122 643 l 1
 425 643 l 1
 425 591 l 1
 182 591 l 1xfc
 182 384 l 1
 425 384 l 1
 425 332 l 1
 182 332 l 1
 182 0 l 1
 122 0 l 1
EndSplineSet
Ligature2: "'liga' Standard Ligatures in Latin lookup 0 subtable" F F
EndChar

StartChar: M_M
Encoding: 65551 -1 83
Width: 1274
Flags: HMW
HStem: 0 22G<0 60 0 0 318 318 577 637 577 577 895 895 1153 1213 1153 1153> 696 20G<0 0 1213 1213>
VStem: 0 60<0 477 0 717> 577 60<0 476 476 476> 1153 60<0 476 476 476>
CounterMasks: 1 38
LayerCount: 2
Fore
SplineSet
1213 717 m 1
 1213 0 l 1
 1153 0 l 1
 1153 476 l 1
 1151 469 l 1
 895 0 l 1
 639 469 l 1
 637 477 l 1
 637 0 l 1
 577 0 l 1
 577 476 l 1
 574 469 l 1
 318 0 l 1
 62 469 l 1
 60 477 l 1
 60 0 l 1
 0 0 l 1
 0 717 l 1
 316 136 l 1
 318 130 l 1
 321 136 l 1
 606 662 l 1
 893 136 l 1
 895 130 l 1
 897 136 l 1
 1213 717 l 1
EndSplineSet
Ligature2: "'liga' Standard Ligatures in Latin lookup 0 subtable" M M
EndChar

StartChar: N_N
Encoding: 65552 -1 84
Width: 1018
Flags: HMW
HStem: 0 22G<0 60 0 0 509 509 957 957> 695 20G<0 0> 696 20G<449 449 897 957 957 957>
VStem: 0 60<0 542 0 716> 449 60<156 542 0 717> 897 60<156 717 0 717>
CounterMasks: 1 1c
LayerCount: 2
Fore
SplineSet
449 717 m 1xbc
 897 156 l 1
 897 717 l 1
 957 717 l 1xbc
 957 0 l 1
 509 542 l 1
 509 0 l 1
 60 542 l 1
 60 0 l 1
 0 0 l 1
 0 716 l 1xdc
 449 156 l 1
 449 717 l 1xbc
EndSplineSet
Ligature2: "'liga' Standard Ligatures in Latin lookup 0 subtable" N N
EndChar

StartChar: P_P
Encoding: 65553 -1 85
Width: 605
Flags: HMW
HStem: 0 22G<0 60 0 0 169 229 169 169> 176 57 176 60<153 169> 668 59<149 357>
VStem: 0 60<0 181 243 662> 169 60<0 176 176 176 256 635> 342 59<412 489> 502 59<391 509>
LayerCount: 2
Fore
SplineSet
169 0 m 1xdf
 169 176 l 1
 136 176 93 176 60 181 c 1xbf
 60 0 l 1
 0 0 l 1
 0 717 l 1
 72 723 167 727 275 727 c 0
 438 727 561 603 561 451 c 0
 561 299 438 176 286 176 c 0
 267 176 239 178 229 178 c 1
 229 0 l 1
 169 0 l 1xdf
169 237 m 1
 169 668 l 1
 129 668 96 665 60 662 c 1
 60 243 l 1
 94 235 133 234 169 237 c 1
401 451 m 0
 401 364 353 283 290 233 c 1xdf
 408 234 502 332 502 451 c 0
 502 569 398 667 279 668 c 1
 353 627 401 538 401 451 c 0
342 451 m 0
 342 529 296 602 229 635 c 1
 229 256 l 1
 290 294 342 373 342 451 c 0
EndSplineSet
Ligature2: "'liga' Standard Ligatures in Latin lookup 0 subtable" P P
EndChar

StartChar: S_S
Encoding: 65554 -1 86
Width: 660
Flags: HMW
HStem: -12 61<175 231 397 420> 663 61<186 225 389 435>
VStem: -1 61<163 207 163 207> 39 61<500 578 500 612> 225 61<550 589> 372 61<145 200> 523 61<550 578> 558 61<182 232 147 251>
LayerCount: 2
Fore
SplineSet
548 369 m 0xdd
 596 323 620 267 620 199 c 0
 620 96 507 -12 403 -12 c 0
 366 -12 333 -4 306 10 c 1
 276 -4 246 -12 217 -12 c 0
 84 -12 -1 98 -1 207 c 1
 60 207 l 1xed
 60 119 133 49 217 49 c 0
 286 49 372 128 372 163 c 0
 372 238 305 276 225 318 c 0
 121 373 39 432 39 542 c 0
 39 683 146 724 219 724 c 0
 249 724 279 714 307 698 c 1
 337 714 373 724 406 724 c 0
 498 724 585 638 585 550 c 1
 523 550 l 1xde
 523 606 465 663 406 663 c 0
 357 663 287 630 287 574 c 0
 287 526 333 499 410 459 c 0
 456 435 508 408 548 369 c 0xdd
508 97 m 0
 540 128 558 165 558 199 c 0
 558 304 475 355 382 404 c 0
 288 453 225 496 225 574 c 0
 225 604 236 632 254 656 c 1
 243 660 230 663 219 663 c 0
 152 663 100 615 100 542 c 0
 100 458 173 415 254 373 c 0
 353 321 433 264 433 163 c 0
 433 128 410 87 370 52 c 1
 380 50 391 49 403 49 c 0
 437 49 476 67 508 97 c 0
EndSplineSet
Ligature2: "'liga' Standard Ligatures in Latin lookup 0 subtable" S S
EndChar

StartChar: T_T
Encoding: 65555 -1 87
Width: 773
Flags: HMW
HStem: 0 22G<202 262 202 202 505 505 505 565> 578 60<275 505 275 788 565 788 565 565> 656 60<-28 202 -28 485 262 485 262 262>
VStem: 202 60<0 656 0 656> 505 60<0 578 0 578>
LayerCount: 2
Fore
SplineSet
485 656 m 1
 262 656 l 1
 262 0 l 1
 202 0 l 1
 202 656 l 1
 -28 656 l 1
 -28 717 l 1
 485 717 l 1
 485 656 l 1
788 578 m 1xf8
 565 578 l 1
 565 0 l 1
 505 0 l 1
 505 578 l 1
 275 578 l 1
 275 638 l 1
 788 638 l 1
 788 578 l 1xf8
EndSplineSet
Ligature2: "'liga' Standard Ligatures in Latin lookup 0 subtable" T T
EndChar

StartChar: A.alt
Encoding: 65556 -1 88
Width: 659
Flags: HMW
HStem: 0 22G<-2 66 -2 -2 548 548 548 614>
VStem: -2 616<0 0>
LayerCount: 2
Fore
SplineSet
306 562 m 1
 305 559 l 1
 66 0 l 1
 -2 0 l 1
 306 715 l 1
 614 0 l 1
 548 0 l 1
 307 559 l 1
 306 562 l 1
EndSplineSet
EndChar

StartChar: guilsinglright
Encoding: 8250 8250 89
Width: 208
Flags: HMW
HStem: 138 339<41 41>
VStem: -2 213<181 307 307 433>
LayerCount: 2
Fore
SplineSet
211 307 m 1
 41 138 l 1
 -2 181 l 1
 124 307 l 1
 -2 433 l 1
 41 477 l 1
 211 307 l 1
EndSplineSet
EndChar

StartChar: guillemotright
Encoding: 187 187 90
Width: 336
Flags: HMW
HStem: 138 339<41 41 41 169>
VStem: -2 341<181 307 307 433>
LayerCount: 2
Fore
SplineSet
41 138 m 1
 -2 181 l 1
 124 307 l 1
 -2 433 l 1
 41 477 l 1
 211 307 l 1
 41 138 l 1
339 307 m 1
 169 138 l 1
 126 181 l 1
 252 307 l 1
 126 433 l 1
 169 477 l 1
 339 307 l 1
EndSplineSet
EndChar

StartChar: guilsinglleft
Encoding: 8249 8249 91
Width: 214
Flags: HMW
HStem: 138 339<168 168>
VStem: -2 213<182 308>
LayerCount: 2
Fore
SplineSet
-2 308 m 1
 168 477 l 1
 211 434 l 1
 85 308 l 1
 211 182 l 1
 168 138 l 1
 -2 308 l 1
EndSplineSet
EndChar

StartChar: guillemotleft
Encoding: 171 171 92
Width: 359
Flags: HMW
HStem: 138 339<168 168 168 296>
VStem: -2 341<182 308>
LayerCount: 2
Fore
SplineSet
126 308 m 1
 296 477 l 1
 339 434 l 1
 213 308 l 1
 339 182 l 1
 296 138 l 1
 126 308 l 1
-2 308 m 1
 168 477 l 1
 211 434 l 1
 85 308 l 1
 211 182 l 1
 168 138 l 1
 -2 308 l 1
EndSplineSet
EndChar

StartChar: plus
Encoding: 43 43 93
Width: 387
Flags: HMW
HStem: 307 61<0 142 0 142 204 351>
VStem: 142 61<143 307 143 307 369 514>
LayerCount: 2
Fore
SplineSet
351 369 m 1
 351 307 l 1
 204 307 l 1
 204 143 l 1
 142 143 l 1
 142 307 l 1
 0 307 l 1
 0 369 l 1
 142 369 l 1
 142 514 l 1
 204 514 l 1
 204 369 l 1
 351 369 l 1
EndSplineSet
EndChar

StartChar: equal
Encoding: 61 61 94
Width: 444
Flags: HMW
HStem: 66 60<0 372 0 372> 245 60<0 372 0 372>
VStem: 0 372<66 126 66 126 245 305 66 305>
LayerCount: 2
Fore
SplineSet
0 305 m 1
 372 305 l 1
 372 245 l 1
 0 245 l 1
 0 305 l 1
0 126 m 1
 372 126 l 1
 372 66 l 1
 0 66 l 1
 0 126 l 1
EndSplineSet
EndChar

StartChar: minus
Encoding: 8722 8722 95
Width: 403
Flags: HMW
HStem: 307 60<0 372 0 372>
VStem: 0 372<307 368 307 368>
LayerCount: 2
Fore
SplineSet
0 368 m 1
 372 368 l 1
 372 307 l 1
 0 307 l 1
 0 368 l 1
EndSplineSet
EndChar

StartChar: ellipsis
Encoding: 8230 8230 96
Width: 446
Flags: HMW
HStem: 0 60<0 62 0 62 164 226 328 390>
VStem: 0 62<0 60 0 60> 164 62<0 60 0 60> 328 62<0 60 0 60>
CounterMasks: 1 70
LayerCount: 2
Fore
SplineSet
0 60 m 1
 62 60 l 1
 62 0 l 1
 0 0 l 1
 0 60 l 1
164 60 m 1
 226 60 l 1
 226 0 l 1
 164 0 l 1
 164 60 l 1
328 60 m 1
 390 60 l 1
 390 0 l 1
 328 0 l 1
 328 60 l 1
EndSplineSet
EndChar

StartChar: less
Encoding: 60 60 97
Width: 283
Flags: HMW
HStem: 82 452<224 224>
VStem: -2 269<126 308>
LayerCount: 2
Fore
SplineSet
-2 308 m 1
 224 534 l 1
 267 490 l 1
 85 308 l 1
 267 126 l 1
 224 82 l 1
 -2 308 l 1
EndSplineSet
EndChar

StartChar: greater
Encoding: 62 62 98
Width: 283
Flags: HMW
HStem: 82 452<41 41>
VStem: -2 269<125 307 307 489>
LayerCount: 2
Fore
SplineSet
267 307 m 1
 41 82 l 1
 -2 125 l 1
 180 307 l 1
 -2 489 l 1
 41 534 l 1
 267 307 l 1
EndSplineSet
EndChar

StartChar: question
Encoding: 63 63 99
Width: 490
Flags: HMW
HStem: 0 61<193 254 193 254> 145 173<193 246 193 254 193 246> 659 61<209 262>
VStem: 193 61<0 61 0 61 145 257> 391 61<439 486>
LayerCount: 2
Fore
SplineSet
425 601 m 1
 453 545 453 488 453 485 c 0
 453 298 301 263 254 257 c 1
 254 145 l 1
 193 145 l 1
 193 318 l 1
 246 318 l 1
 334 329 391 391 391 486 c 1
 391 486 389 533 369 577 c 0
 343 631 296 659 228 659 c 0
 190 659 158 650 132 633 c 0
 70 590 51 485 55 484 c 2
 -6 487 l 2
 -6 486 3 721 228 721 c 0
 317 721 390 680 425 601 c 1
193 0 m 1
 193 61 l 1
 254 61 l 1
 254 0 l 1
 193 0 l 1
EndSplineSet
EndChar

StartChar: exclam
Encoding: 33 33 100
Width: 96
Flags: HMW
HStem: 0 61<0 61 0 61> 696 20G<0 61 61 61>
VStem: 0 61<0 61 0 61 145 717>
LayerCount: 2
Fore
SplineSet
61 717 m 1
 61 145 l 1
 0 145 l 1
 0 717 l 1
 61 717 l 1
0 0 m 1
 0 61 l 1
 61 61 l 1
 61 0 l 1
 0 0 l 1
EndSplineSet
EndChar

StartChar: interrobang
Encoding: 8253 8253 101
Width: 476
Flags: HMW
HStem: 0 61<193 254 193 254> 659 61<209 262>
VStem: 193 61<0 61 0 61 145 257 319 588> 391 61<440 486>
LayerCount: 2
Fore
SplineSet
254 470 m 1
 254 242 l 1
 337 255 391 317 391 409 c 1
 391 409 389 455 369 499 c 0
 343 553 296 582 228 582 c 0
 190 582 158 572 132 555 c 0
 70 512 51 408 55 407 c 2
 -6 410 l 2
 -6 409 3 643 228 643 c 0
 317 643 390 602 425 523 c 1
 453 467 453 411 453 408 c 0
 453 221 301 185 254 179 c 1
 254 145 l 1
 193 145 l 1
 193 470 l 1
 254 470 l 1
193 0 m 1
 193 61 l 1
 254 61 l 1
 254 0 l 1
 193 0 l 1
EndSplineSet
LCarets2: 1 0 
Ligature2: "'liga' Standard Ligatures in Latin lookup 1 subtable" exclam question
EndChar

StartChar: Q.alt
Encoding: 65557 -1 102
Width: 752
Flags: HMW
HStem: -224 61<923 1035 923 1043> -12 61<304 370 304 379> 198 61<131 183> 662 61<315 437>
VStem: -4 61<337 396 337 464> 653 61<302 438>
LayerCount: 2
Fore
SplineSet
1223 -43 m 1
 1269 -84 l 1
 1190 -177 1093 -224 992 -224 c 0
 832 -224 671 -108 518 4 c 0
 512 8 505 13 499 18 c 1
 498 17 497 17 496 16 c 0
 451 -3 403 -12 355 -12 c 0
 142 -12 -4 166 -4 355 c 0
 -4 573 170 723 355 723 c 0
 566 723 715 543 715 355 c 0
 715 232 653 121 557 51 c 1
 701 -54 853 -163 993 -163 c 0
 1077 -163 1152 -123 1223 -43 c 1
144 572 m 0
 88 514 57 437 57 355 c 0
 57 319 64 285 75 252 c 1
 94 257 113 259 135 259 c 0
 244 259 371 185 504 90 c 1
 598 145 653 247 653 355 c 0
 653 521 518 662 355 662 c 0
 275 662 200 629 144 572 c 0
355 49 m 0
 384 49 411 53 438 61 c 1
 330 136 228 198 137 198 c 0
 125 198 112 197 101 195 c 1
 156 102 253 49 355 49 c 0
EndSplineSet
EndChar

StartChar: O.alt
Encoding: 65558 -1 103
Width: 437
Flags: HMW
HStem: -10 61<159 232 159 249> 660 61<159 232>
VStem: 0 61<186 525> 330 61<186 525>
LayerCount: 2
Fore
SplineSet
196 -10 m 0
 88 -10 0 77 0 186 c 2
 0 525 l 2
 0 634 88 722 196 722 c 0
 304 722 391 634 391 525 c 2
 391 186 l 2
 391 77 304 -10 196 -10 c 0
196 660 m 0
 122 660 61 600 61 525 c 2
 61 186 l 2
 61 111 122 51 196 51 c 0
 270 51 330 111 330 186 c 2
 330 525 l 2
 330 600 270 660 196 660 c 0
EndSplineSet
EndChar

StartChar: fraction
Encoding: 8260 8260 104
Width: 534
Flags: HMW
HStem: 0 22G<0 63 0 0> 696 20G<471 535 535 535>
VStem: 0 535
LayerCount: 2
Fore
SplineSet
535 717 m 1
 63 0 l 1
 0 0 l 1
 471 717 l 1
 535 717 l 1
EndSplineSet
EndChar

StartChar: asterisk
Encoding: 42 42 105
Width: 260
Flags: HMW
HStem: 467 250<93 155 93 155> 696 20G<93 155 155 155>
VStem: 93 61<467 535 467 535 649 717>
LayerCount: 2
Fore
SplineSet
248 628 m 1x60
 188 594 l 1
 182 592 l 1
 188 590 l 1
 248 556 l 1
 217 503 l 1
 158 537 l 1
 154 541 l 1
 155 535 l 1
 155 467 l 1
 93 467 l 1
 93 535 l 1
 95 542 l 1
 89 537 l 1
 31 503 l 1
 0 556 l 1xa0
 59 590 l 1
 66 592 l 1
 59 594 l 1
 0 628 l 1
 31 681 l 1
 90 647 l 1
 95 643 l 1
 93 649 l 1
 93 717 l 1
 155 717 l 1
 155 649 l 1
 154 643 l 1
 159 647 l 1
 217 681 l 1
 248 628 l 1x60
EndSplineSet
EndChar

StartChar: a
Encoding: 97 97 106
Width: 527
Flags: HMW
HStem: 0 102<-2 389 110 433 110 500> 41 61<110 389 110 415 83 389> 561 20G<249 249>
VStem: -2 502<0 0>
LayerCount: 2
Fore
SplineSet
-2 0 m 1xb0
 249 582 l 1
 500 0 l 1
 433 0 l 1xb0
 415 41 l 1
 83 41 l 1x70
 66 0 l 1
 -2 0 l 1xb0
389 102 m 1
 249 427 l 1
 110 102 l 1
 389 102 l 1
EndSplineSet
Substitution2: "'salt' Stylistic Alternatives in Latin lookup 4 subtable" a.alt
EndChar

StartChar: b
Encoding: 98 98 107
Width: 427
Flags: HMW
HStem: -4 61<140 181 140 196> 276 61<118 148 118 179> 520 61<120 167>
VStem: 0 61<65 273 335 512> 261 61<397 449> 278 61<133 191 114 197>
LayerCount: 2
Fore
SplineSet
145 -4 m 0xf4
 123 -4 37 5 28 6 c 2
 0 8 l 1
 0 561 l 1
 24 567 l 2
 26 567 84 582 132 582 c 0
 236 582 323 510 323 421 c 0xf8
 323 366 294 325 270 300 c 1
 314 263 339 220 339 162 c 0
 339 66 246 -4 145 -4 c 0xf4
61 273 m 1
 61 65 l 1
 95 61 134 57 145 57 c 0
 216 57 278 104 278 162 c 0
 278 233 223 276 135 276 c 0
 99 276 75 274 61 273 c 1
135 338 m 0
 162 338 187 335 210 328 c 1
 226 341 261 374 261 421 c 0xf8
 261 476 203 520 132 520 c 0
 108 520 80 516 61 512 c 1
 61 335 l 1
 77 337 101 338 135 338 c 0
EndSplineSet
EndChar

StartChar: c
Encoding: 99 99 108
Width: 427
Flags: HMW
HStem: -1 61<201 273 201 280> 522 61<201 272>
VStem: -3 61<228 355 228 365>
LayerCount: 2
Fore
SplineSet
256 -1 m 0
 112 -1 -3 134 -3 292 c 0
 -3 437 100 584 256 584 c 0
 299 584 342 572 379 549 c 1
 347 497 l 1
 319 514 289 522 256 522 c 0
 146 522 58 419 58 292 c 0
 58 164 146 60 256 60 c 0
 291 60 325 72 355 92 c 1
 390 41 l 1
 350 13 303 -1 256 -1 c 0
EndSplineSet
EndChar

StartChar: d
Encoding: 100 100 109
Width: 452
Flags: HMW
HStem: -3 59<130 200 130 224> 523 46 523 58<131 200>
VStem: 0 61<63 516 63 568 63 568> 345 61<223 352>
LayerCount: 2
Fore
SplineSet
144 -3 m 0xb8
 98 -3 60 1 28 5 c 1
 0 7 l 1
 0 568 l 1xd8
 25 571 l 2
 59 575 102 582 144 582 c 0
 290 582 407 445 407 288 c 0
 407 142 303 -3 144 -3 c 0xb8
61 516 m 1
 61 63 l 1
 89 57 115 56 144 56 c 0
 255 56 345 159 345 288 c 0
 345 416 255 523 144 523 c 0
 117 523 88 522 61 516 c 1
EndSplineSet
EndChar

StartChar: e
Encoding: 101 101 110
Width: 444
Flags: HMW
HStem: 0 59<61 383 61 383> 308 59<61 383 61 383> 516 59<61 383 61 61>
VStem: 0 61<59 308 368 516>
LayerCount: 2
Fore
SplineSet
0 0 m 1
 0 575 l 1
 383 575 l 1
 383 516 l 1
 61 516 l 1
 61 368 l 1
 383 368 l 1
 383 308 l 1
 61 308 l 1
 61 59 l 1
 383 59 l 1
 383 0 l 1
 0 0 l 1
EndSplineSet
Substitution2: "'salt' Stylistic Alternatives in Latin lookup 4 subtable" e.alt
EndChar

StartChar: f
Encoding: 102 102 111
Width: 442
Flags: HMW
HStem: 0 22G<0 0 0 61> 307 59<61 383 61 383> 518 59<61 383 61 61>
VStem: 0 61<0 307 367 518>
LayerCount: 2
Fore
SplineSet
0 0 m 1
 0 578 l 1
 383 578 l 1
 383 518 l 1
 61 518 l 1
 61 367 l 1
 383 367 l 1
 383 307 l 1
 61 307 l 1
 61 0 l 1
 0 0 l 1
EndSplineSet
EndChar

StartChar: g
Encoding: 103 103 112
Width: 472
Flags: HMW
HStem: -5 61<203 273 203 273> 518 61<203 274>
VStem: -1 61<224 351 224 366> 343 61<6 11 11 11 79 307 -10 307>
LayerCount: 2
Fore
SplineSet
343 307 m 1
 404 307 l 1
 404 -10 l 1
 332 -134 l 1
 279 -103 l 1
 343 6 l 1
 343 11 l 1
 315 1 288 -5 258 -5 c 0
 102 -5 -1 141 -1 288 c 0
 -1 444 114 580 258 580 c 0
 301 580 344 568 381 545 c 1
 349 493 l 1
 321 510 291 518 258 518 c 0
 148 518 60 415 60 288 c 0
 60 160 148 56 258 56 c 0
 288 56 316 65 343 79 c 1
 343 307 l 1
EndSplineSet
EndChar

StartChar: h
Encoding: 104 104 113
Width: 498
Flags: HMW
HStem: 0 22G<0 61 0 0 380 441 380 380> 307 60<61 380 61 380>
VStem: 0 61<0 307 0 368 368 575> 380 61<0 307 307 307 368 575 0 575>
LayerCount: 2
Fore
SplineSet
441 575 m 1
 441 0 l 1
 380 0 l 1
 380 307 l 1
 61 307 l 1
 61 0 l 1
 0 0 l 1
 0 575 l 1
 61 575 l 1
 61 368 l 1
 380 368 l 1
 380 575 l 1
 441 575 l 1
EndSplineSet
EndChar

StartChar: i
Encoding: 105 105 114
Width: 121
Flags: HMW
HStem: 0 22G<0 61 0 0>
VStem: 0 61<0 577 0 577>
LayerCount: 2
Fore
SplineSet
61 577 m 1
 61 0 l 1
 0 0 l 1
 0 577 l 1
 61 577 l 1
EndSplineSet
EndChar

StartChar: j
Encoding: 106 106 115
Width: 253
Flags: HMW
HStem: -79 61<-23 25 -23 41>
VStem: 150 61<155 575>
LayerCount: 2
Fore
SplineSet
-23 -79 m 1
 -23 -17 l 1
 72 -17 150 60 150 155 c 2
 150 575 l 1
 211 575 l 1
 211 155 l 2
 211 28 104 -79 -23 -79 c 1
EndSplineSet
EndChar

StartChar: k
Encoding: 107 107 116
Width: 441
Flags: HMW
HStem: 0 22G<0 61 0 0 332 409 332 332>
VStem: 0 61<0 323 0 339 339 575>
LayerCount: 2
Fore
SplineSet
331 577 m 1
 132 331 l 1
 409 0 l 1
 332 0 l 1
 61 323 l 1
 61 0 l 1
 0 0 l 1
 0 575 l 1
 61 575 l 1
 61 339 l 1
 254 577 l 1
 331 577 l 1
EndSplineSet
EndChar

StartChar: l
Encoding: 108 108 117
Width: 248
Flags: HMW
HStem: 0 60<61 210 61 210>
VStem: 0 61<60 575 60 575 60 575>
LayerCount: 2
Fore
SplineSet
210 0 m 1
 0 0 l 1
 0 575 l 1
 61 575 l 1
 61 60 l 1
 210 60 l 1
 210 0 l 1
EndSplineSet
EndChar

StartChar: m
Encoding: 109 109 118
Width: 698
Flags: HMW
HStem: 0 22G<0 61 0 0 575 637 575 575>
VStem: 0 61<0 394 0 595> 575 61<0 394 394 394>
LayerCount: 2
Fore
SplineSet
637 595 m 1
 637 0 l 1
 575 0 l 1
 575 394 l 1
 572 384 l 1
 318 -13 l 1
 65 384 l 1
 61 394 l 1
 61 0 l 1
 0 0 l 1
 0 595 l 1
 316 105 l 1
 318 99 l 1
 321 105 l 1
 637 595 l 1
EndSplineSet
EndChar

StartChar: n
Encoding: 110 110 119
Width: 570
Flags: HMW
HStem: 0 22G<0 61 0 0>
VStem: 0 61<0 433 0 586> 450 59<142 575 -6 575>
LayerCount: 2
Fore
SplineSet
509 575 m 1
 509 -6 l 1
 61 433 l 1
 61 0 l 1
 0 0 l 1
 0 586 l 1
 450 142 l 1
 450 575 l 1
 509 575 l 1
EndSplineSet
EndChar

StartChar: o
Encoding: 111 111 120
Width: 605
Flags: HMW
HStem: -5 61<222 346 222 364> 522 61<222 346>
VStem: -3 61<226 352 226 369> 510 61<226 352>
LayerCount: 2
Fore
SplineSet
284 -5 m 0
 125 -5 -3 131 -3 289 c 0
 -3 450 128 584 284 584 c 0
 441 584 571 451 571 289 c 0
 571 130 444 -5 284 -5 c 0
284 522 m 0
 161 522 58 416 58 289 c 0
 58 163 160 56 284 56 c 0
 409 56 510 164 510 289 c 0
 510 416 409 522 284 522 c 0
EndSplineSet
Substitution2: "'salt' Stylistic Alternatives in Latin lookup 4 subtable" o.alt
EndChar

StartChar: p
Encoding: 112 112 121
Width: 370
Flags: HMW
HStem: 0 22G<0 61 0 0> 129 59<98 133 96 161> 515 60<94 124 87 143>
VStem: 0 61<0 133 0 193 193 512> 262 61<296 399 292 404>
LayerCount: 2
Fore
SplineSet
61 133 m 1
 61 0 l 1
 0 0 l 1
 0 569 l 1
 27 570 l 2
 32 571 77 575 97 575 c 0
 151 575 209 556 249 523 c 0
 283 495 324 441 324 357 c 0
 324 227 215 129 106 129 c 0
 89 129 73 131 61 133 c 1
61 512 m 1
 61 193 l 1
 69 190 84 188 106 188 c 0
 159 188 262 234 262 357 c 0
 262 450 188 515 97 515 c 0
 90 515 74 514 61 512 c 1
EndSplineSet
EndChar

StartChar: q
Encoding: 113 113 122
Width: 619
Flags: HMW
HStem: -189 61<437 511 437 516> -5 22G -5 63 524 57<222 346>
VStem: -3 61<256 350 256 367> 510 61<224 350>
LayerCount: 2
Fore
SplineSet
634 -91 m 1xdc
 659 -146 l 1
 598 -175 541 -189 490 -189 c 0
 323 -189 266 -39 257 -6 c 1
 109 9 -3 140 -3 287 c 0
 -3 448 128 582 284 582 c 0
 441 582 571 449 571 287 c 0
 571 144 465 13 322 -5 c 1
 338 -46 384 -128 490 -128 c 0
 532 -128 581 -116 634 -91 c 1xdc
125 122 m 0xbc
 168 79 225 58 284 58 c 0
 409 58 510 162 510 287 c 0
 510 414 409 524 284 524 c 0
 161 524 58 414 58 287 c 0
 58 226 82 166 125 122 c 0xbc
EndSplineSet
Substitution2: "'salt' Stylistic Alternatives in Latin lookup 4 subtable" q.alt
EndChar

StartChar: r
Encoding: 114 114 123
Width: 391
Flags: HMW
HStem: 0 22G<0 61 0 0 260 332 260 260> 131 61<98 118> 518 61<94 126 88 144>
VStem: 0 61<0 135 199 516> 265 61<329 403 319 407>
LayerCount: 2
Fore
SplineSet
332 0 m 1
 260 0 l 1
 173 143 l 1
 151 135 130 131 108 131 c 0
 90 131 73 133 61 135 c 1
 61 0 l 1
 0 0 l 1
 0 569 l 1
 27 573 l 2
 32 574 76 580 98 580 c 0
 153 580 209 561 250 527 c 0
 285 498 327 446 327 360 c 0
 327 277 289 223 228 171 c 1
 332 0 l 1
210 236 m 0
 235 259 265 298 265 360 c 0
 265 453 190 518 98 518 c 0
 90 518 74 517 61 516 c 1
 61 199 l 1
 69 196 85 193 108 193 c 0
 142 193 180 209 210 236 c 0
EndSplineSet
Substitution2: "'salt' Stylistic Alternatives in Latin lookup 4 subtable" r.alt
EndChar

StartChar: s
Encoding: 115 115 124
Width: 389
Flags: HMW
HStem: 0 61<142 198 142 215> 514 61<152 196>
VStem: -1 61<144 174 144 174> 30 61<398 455 398 484> 257 61<435 454> 284 61<144 216>
LayerCount: 2
Fore
SplineSet
173 0 m 0xe4
 80 0 -1 78 -1 174 c 1
 60 174 l 1
 60 114 112 61 173 61 c 0
 223 61 284 121 284 168 c 0xe4
 284 263 220 270 169 286 c 0
 95 310 30 341 30 429 c 0
 30 540 115 575 175 575 c 0
 247 575 318 508 318 435 c 1
 257 435 l 1
 257 473 216 514 175 514 c 0
 128 514 91 481 91 429 c 0xd8
 91 367 140 358 187 345 c 1
 276 314 345 278 345 168 c 0
 345 85 256 0 173 0 c 0xe4
EndSplineSet
Substitution2: "'salt' Stylistic Alternatives in Latin lookup 4 subtable" s.alt
EndChar

StartChar: t
Encoding: 116 116 125
Width: 562
Flags: HMW
HStem: 0 22G<229 290 229 229> 514 60<0 229 0 513 290 513 290 290>
VStem: 229 60<0 514 0 514>
LayerCount: 2
Fore
SplineSet
513 514 m 1
 290 514 l 1
 290 0 l 1
 229 0 l 1
 229 514 l 1
 0 514 l 1
 0 574 l 1
 513 574 l 1
 513 514 l 1
EndSplineSet
EndChar

StartChar: u
Encoding: 117 117 126
Width: 556
Flags: HMW
HStem: -2 60<196 295 196 312>
VStem: 0 60<236 575 236 575 236 575> 431 60<236 575 236 575>
LayerCount: 2
Fore
SplineSet
246 -2 m 0
 113 -2 4 102 0 234 c 1
 0 575 l 1
 60 575 l 1
 60 236 l 1
 64 137 146 58 246 58 c 0
 345 58 427 137 431 236 c 1
 431 575 l 1
 492 575 l 1
 492 236 l 1
 488 104 378 -2 246 -2 c 0
EndSplineSet
EndChar

StartChar: v
Encoding: 118 118 127
Width: 471
Flags: HMW
HStem: 0 22G<212 212>
VStem: -1 430<574 574>
LayerCount: 2
Fore
SplineSet
62 574 m 1
 210 174 l 1
 212 166 l 1
 214 174 l 1
 366 574 l 1
 429 574 l 1
 212 0 l 1
 -1 574 l 1
 62 574 l 1
EndSplineSet
EndChar

StartChar: w
Encoding: 119 119 128
Width: 766
Flags: HMW
HStem: 562 20G<362 362>
VStem: -1 724<575 575>
LayerCount: 2
Fore
SplineSet
62 575 m 1
 209 171 l 1
 211 163 l 1
 213 171 l 1
 362 583 l 1
 510 171 l 1
 512 163 l 1
 514 171 l 1
 659 575 l 1
 723 575 l 1
 512 -8 l 1
 364 408 l 1
 362 412 l 1
 361 408 l 1
 211 -8 l 1
 -1 575 l 1
 62 575 l 1
EndSplineSet
EndChar

StartChar: x
Encoding: 120 120 129
Width: 498
Flags: HMW
HStem: 0 22G<-2 -2 -2 67 382 382 382 451>
VStem: -2 453<0 0>
LayerCount: 2
Fore
SplineSet
-2 0 m 1
 189 307 l 1
 24 575 l 1
 91 575 l 1
 222 365 l 1
 223 360 l 1
 224 365 l 1
 356 575 l 1
 424 575 l 1
 258 307 l 1
 451 0 l 1
 382 0 l 1
 224 251 l 1
 223 255 l 1
 222 251 l 1
 67 0 l 1
 -2 0 l 1
EndSplineSet
EndChar

StartChar: y
Encoding: 121 121 130
Width: 393
Flags: HMW
HStem: 0 22G<165 225 165 165>
VStem: 165 60<0 308 0 308>
LayerCount: 2
Fore
SplineSet
390 575 m 1
 225 308 l 1
 225 0 l 1
 165 0 l 1
 165 308 l 1
 -1 575 l 1
 67 575 l 1
 194 373 l 1
 195 369 l 1
 196 373 l 1
 323 575 l 1
 390 575 l 1
EndSplineSet
EndChar

StartChar: z
Encoding: 122 122 131
Width: 545
Flags: HMW
HStem: 0 60<119 503 119 503> 515 60<0 379 0 500>
VStem: -7 510<0 0>
LayerCount: 2
Fore
SplineSet
503 0 m 1
 -7 0 l 1
 377 514 l 1
 379 515 l 1
 0 515 l 1
 0 575 l 1
 500 575 l 1
 122 62 l 1
 119 60 l 1
 503 60 l 1
 503 0 l 1
EndSplineSet
EndChar

StartChar: numbersign
Encoding: 35 35 132
Width: 399
Flags: HMW
HStem: 214 61<0 77 0 77 138 209 270 342> 342 61<0 77 0 77 138 209 270 341>
VStem: 77 61<51 214 51 214 275 342 403 549> 209 61<50 214 50 214 275 342 403 549>
LayerCount: 2
Fore
SplineSet
342 275 m 1
 342 214 l 1
 270 214 l 1
 270 50 l 1
 209 50 l 1
 209 214 l 1
 138 214 l 1
 138 51 l 1
 77 51 l 1
 77 214 l 1
 0 214 l 1
 0 275 l 1
 77 275 l 1
 77 342 l 1
 0 342 l 1
 0 403 l 1
 77 403 l 1
 77 549 l 1
 138 549 l 1
 138 403 l 1
 209 403 l 1
 209 549 l 1
 270 549 l 1
 270 403 l 1
 341 403 l 1
 341 342 l 1
 270 342 l 1
 270 275 l 1
 342 275 l 1
138 342 m 1
 138 275 l 1
 209 275 l 1
 209 342 l 1
 138 342 l 1
EndSplineSet
EndChar

StartChar: Egrave
Encoding: 200 200 133
Width: 444
Flags: HMW
HStem: 0 59<61 383 61 383> 308 59<61 383 61 383> 657 59<61 383 61 61> 657 163<113 179 113 383 61 179>
VStem: 0 61<59 308 368 657>
LayerCount: 2
Fore
SplineSet
0 0 m 1xe8
 0 717 l 1
 383 717 l 1
 383 657 l 1
 61 657 l 1
 61 368 l 1
 383 368 l 1
 383 308 l 1
 61 308 l 1
 61 59 l 1
 383 59 l 1
 383 0 l 1
 0 0 l 1xe8
195 717 m 1xd8
 113 820 l 1
 179 820 l 1
 261 717 l 1
 195 717 l 1xd8
EndSplineSet
EndChar

StartChar: Eacute
Encoding: 201 201 134
Width: 444
Flags: HMW
HStem: 0 59<61 383 61 383> 308 59<61 383 61 383> 657 59<61 383 61 61> 657 163<229 296 229 383>
VStem: 0 61<59 308 368 657>
LayerCount: 2
Fore
SplineSet
0 0 m 1xe8
 0 717 l 1
 383 717 l 1
 383 657 l 1
 61 657 l 1
 61 368 l 1
 383 368 l 1
 383 308 l 1
 61 308 l 1
 61 59 l 1
 383 59 l 1
 383 0 l 1
 0 0 l 1xe8
296 820 m 1xd8
 214 717 l 1xd8
 147 717 l 1xe8
 229 820 l 1
 296 820 l 1xd8
EndSplineSet
EndChar

StartChar: Ecircumflex
Encoding: 202 202 135
Width: 444
Flags: HMW
HStem: 0 59<61 383 61 383> 308 59<61 383 61 383> 657 59<61 383 61 61> 710 7<52 119 52 52 52 119 52 52 282 348 282 282 282 348 282 282>
VStem: 0 61<59 308 368 657>
LayerCount: 2
Fore
SplineSet
0 0 m 1xd8
 0 717 l 1
 383 717 l 1xd8
 383 657 l 1
 61 657 l 1xe8
 61 368 l 1
 383 368 l 1
 383 308 l 1
 61 308 l 1
 61 59 l 1
 383 59 l 1
 383 0 l 1
 0 0 l 1xd8
282 710 m 1
 200 812 l 1
 119 710 l 1
 52 710 l 1
 200 895 l 1
 348 710 l 1
 282 710 l 1
282 710 m 1
 200 812 l 1
 119 710 l 1
 52 710 l 1
 200 895 l 1
 348 710 l 1
 282 710 l 1
EndSplineSet
EndChar

StartChar: Edieresis
Encoding: 203 203 136
Width: 444
Flags: HMW
HStem: 0 59<61 383 61 383> 308 59<61 383 61 383> 657 59<61 383 61 61> 717 61<96 158 240 301 96 158 96 158 240 301>
VStem: 0 61<59 308 368 657> 96 61<717 778 717 778> 240 61<717 778 717 778>
LayerCount: 2
Fore
SplineSet
0 0 m 1xee
 0 717 l 1
 383 717 l 1
 383 657 l 1
 61 657 l 1
 61 368 l 1
 383 368 l 1
 383 308 l 1
 61 308 l 1
 61 59 l 1
 383 59 l 1
 383 0 l 1
 0 0 l 1xee
96 717 m 1xde
 96 778 l 1
 158 778 l 1
 158 717 l 1
 96 717 l 1xde
240 717 m 1
 240 778 l 1
 301 778 l 1
 301 717 l 1
 240 717 l 1
EndSplineSet
EndChar

StartChar: Agrave
Encoding: 192 192 137
Width: 659
Flags: HMW
HStem: 0 102<-2 504 110 548 110 614> 41 61<110 504 110 529 83 504> 667 103<196 278 196 344>
VStem: -2 616<0 0>
LayerCount: 2
Fore
SplineSet
66 0 m 1x70
 -2 0 l 1
 306 715 l 1
 614 0 l 1
 548 0 l 1xb0
 529 41 l 1
 83 41 l 1
 66 0 l 1x70
306 562 m 1
 305 559 l 1
 110 102 l 1
 504 102 l 1xb0
 307 559 l 1
 306 562 l 1
278 667 m 1xb0
 196 770 l 1
 262 770 l 1
 344 667 l 1
 278 667 l 1xb0
EndSplineSet
EndChar

StartChar: Aacute
Encoding: 193 193 138
Width: 659
Flags: HMW
HStem: 0 102<-2 504 110 548 110 614> 41 61<110 504 110 529 83 504> 679 103<268 417 268 417>
VStem: -2 616<0 0>
LayerCount: 2
Fore
SplineSet
66 0 m 1x70
 -2 0 l 1
 306 715 l 1
 614 0 l 1
 548 0 l 1xb0
 529 41 l 1
 83 41 l 1
 66 0 l 1x70
306 562 m 1
 305 559 l 1
 110 102 l 1
 504 102 l 1xb0
 307 559 l 1
 306 562 l 1
417 782 m 1xb0
 335 679 l 1
 268 679 l 1
 350 782 l 1
 417 782 l 1xb0
EndSplineSet
EndChar

StartChar: Acircumflex
Encoding: 194 194 139
Width: 659
Flags: HMW
HStem: 0 102<-2 504 110 548 110 614> 41 61<110 504 110 529 83 504>
VStem: -2 616<0 0>
LayerCount: 2
Fore
SplineSet
66 0 m 1x60
 -2 0 l 1
 306 715 l 1
 614 0 l 1
 548 0 l 1xa0
 529 41 l 1
 83 41 l 1
 66 0 l 1x60
306 562 m 1
 305 559 l 1
 110 102 l 1
 504 102 l 1xa0
 307 559 l 1
 306 562 l 1
389 650 m 1
 307 753 l 1
 226 650 l 1
 160 650 l 1
 307 836 l 1
 456 650 l 1
 389 650 l 1
EndSplineSet
EndChar

StartChar: Adieresis
Encoding: 196 196 140
Width: 659
Flags: HMW
HStem: 0 102<-2 504 110 548 110 614> 41 61<110 504 110 529 83 504> 691 61<204 265 204 265 347 409>
VStem: 204 61<691 753 691 753> 347 61<691 753 691 753>
LayerCount: 2
Fore
SplineSet
66 0 m 1x78
 -2 0 l 1
 306 715 l 1
 614 0 l 1
 548 0 l 1xb8
 529 41 l 1
 83 41 l 1
 66 0 l 1x78
306 562 m 1
 305 559 l 1
 110 102 l 1
 504 102 l 1xb8
 307 559 l 1
 306 562 l 1
204 691 m 1xb8
 204 753 l 1
 265 753 l 1
 265 691 l 1
 204 691 l 1xb8
347 691 m 1
 347 753 l 1
 409 753 l 1
 409 691 l 1
 347 691 l 1
EndSplineSet
EndChar

StartChar: Igrave
Encoding: 204 204 141
Width: 121
Flags: HMW
HStem: 0 22G<0 61 0 0> 696 20G<0 61 61 61> 714 103<-83 -1 -83 66>
VStem: 0 61<0 717 0 717>
LayerCount: 2
Fore
SplineSet
61 717 m 1xd0
 61 0 l 1
 0 0 l 1
 0 717 l 1
 61 717 l 1xd0
-1 714 m 1xb0
 -83 817 l 1
 -16 817 l 1
 66 714 l 1
 -1 714 l 1xb0
EndSplineSet
EndChar

StartChar: Iacute
Encoding: 205 205 142
Width: 121
Flags: HMW
HStem: 0 22G<0 61 0 0> 696 20G<0 61 61 61> 715 103<-6 142 -6 142>
VStem: 0 61<0 717 0 717>
LayerCount: 2
Fore
SplineSet
61 717 m 1xd0
 61 0 l 1
 0 0 l 1
 0 717 l 1
 61 717 l 1xd0
142 818 m 1xb0
 60 715 l 1
 -6 715 l 1
 76 818 l 1
 142 818 l 1xb0
EndSplineSet
EndChar

StartChar: Icircumflex
Encoding: 206 206 143
Width: 121
Flags: HMW
HStem: 0 22G<0 61 0 0> 696 20G<0 61 61 61>
VStem: 0 61<0 717 0 717>
LayerCount: 2
Fore
SplineSet
61 717 m 1
 61 0 l 1
 0 0 l 1
 0 717 l 1
 61 717 l 1
111 715 m 1
 29 817 l 1
 -52 715 l 1
 -119 715 l 1
 29 900 l 1
 177 715 l 1
 111 715 l 1
EndSplineSet
EndChar

StartChar: Idieresis
Encoding: 207 207 144
Width: 121
Flags: HMW
HStem: 0 22G<0 61 0 0> 696 20G<0 61 61 61> 733 61<-75 -13 -75 -13 69 130>
VStem: -75 61<733 795 733 795> 0 61<0 717 0 717> 69 61<733 795 733 795>
LayerCount: 2
Fore
SplineSet
61 717 m 1
 61 0 l 1
 0 0 l 1
 0 717 l 1
 61 717 l 1
-75 733 m 1xe8
 -75 795 l 1xe8
 -13 795 l 1
 -13 733 l 1xf8
 -75 733 l 1xe8
69 733 m 1xe4
 69 795 l 1xe4
 130 795 l 1
 130 733 l 1xe8
 69 733 l 1xe4
EndSplineSet
EndChar

StartChar: Ograve
Encoding: 210 210 145
Width: 742
Flags: HMW
HStem: -4 61<273 437 273 461> 670 61<273 437> 717 14<330 330 330 396>
VStem: -4 61<280 446 280 460> 653 61<281 446>
LayerCount: 2
Fore
SplineSet
355 -4 m 0xb8
 171 -4 -4 145 -4 364 c 0
 -4 558 145 731 355 731 c 0
 535 731 715 585 715 364 c 0
 715 176 566 -4 355 -4 c 0xb8
355 670 m 0xd8
 190 670 57 530 57 364 c 0
 57 197 190 57 355 57 c 0
 518 57 653 198 653 364 c 0
 653 530 518 670 355 670 c 0xd8
330 717 m 1xb8
 248 820 l 1
 314 820 l 1
 396 717 l 1
 330 717 l 1xb8
EndSplineSet
EndChar

StartChar: Oacute
Encoding: 211 211 146
Width: 742
Flags: HMW
HStem: -4 61<273 437 273 461> 670 61<273 437> 721 10<318 385 318 318>
VStem: -4 61<280 446 280 460> 653 61<281 446>
LayerCount: 2
Fore
SplineSet
355 -4 m 0xb8
 171 -4 -4 145 -4 364 c 0
 -4 558 145 731 355 731 c 0
 535 731 715 585 715 364 c 0
 715 176 566 -4 355 -4 c 0xb8
355 670 m 0xd8
 190 670 57 530 57 364 c 0
 57 197 190 57 355 57 c 0
 518 57 653 198 653 364 c 0
 653 530 518 670 355 670 c 0xd8
467 824 m 1
 385 721 l 1
 318 721 l 1xb8
 400 824 l 1
 467 824 l 1
EndSplineSet
EndChar

StartChar: Ocircumflex
Encoding: 212 212 147
Width: 742
Flags: HMW
HStem: -4 920<354 354 354 461>
VStem: -4 719<269 460>
LayerCount: 2
Fore
SplineSet
355 -4 m 0
 566 -4 715 176 715 364 c 0
 715 585 535 731 355 731 c 0
 145 731 -4 558 -4 364 c 0
 -4 145 171 -4 355 -4 c 0
355 670 m 0
 518 670 653 530 653 364 c 0
 653 198 518 57 355 57 c 0
 190 57 57 197 57 364 c 0
 57 530 190 670 355 670 c 0
436 730 m 1
 354 833 l 1
 273 730 l 1
 207 730 l 1
 354 915 l 1
 503 730 l 1
 436 730 l 1
EndSplineSet
EndChar

StartChar: Odieresis
Encoding: 214 214 148
Width: 742
Flags: HMW
HStem: 731 71<254 315 397 445>
VStem: 254 61<740 802 740 802> 397 61<740 802 740 802>
LayerCount: 2
Fore
SplineSet
355 -4 m 0
 566 -4 715 176 715 364 c 0
 715 585 535 731 355 731 c 0
 145 731 -4 558 -4 364 c 0
 -4 145 171 -4 355 -4 c 0
355 670 m 0
 518 670 653 530 653 364 c 0
 653 198 518 57 355 57 c 0
 190 57 57 197 57 364 c 0
 57 530 190 670 355 670 c 0
254 740 m 1
 254 802 l 1
 315 802 l 1
 315 740 l 1
 254 740 l 1
397 740 m 1
 397 802 l 1
 459 802 l 1
 459 740 l 1
 397 740 l 1
EndSplineSet
EndChar

StartChar: Ugrave
Encoding: 217 217 149
Width: 575
Flags: HMW
HStem: -2 60<196 295 196 312> 691 103<170 252 170 318> 696 20G<0 60 60 60 431 492 492 492>
VStem: 0 60<236 717 236 717 236 717> 431 60<236 717 236 717>
LayerCount: 2
Fore
SplineSet
246 -2 m 0xb8
 113 -2 4 102 0 234 c 1
 0 717 l 1
 60 717 l 1
 60 236 l 1
 64 137 146 58 246 58 c 0
 345 58 427 137 431 236 c 1
 431 717 l 1
 492 717 l 1
 492 236 l 1
 488 104 378 -2 246 -2 c 0xb8
252 691 m 1xd8
 170 795 l 1
 237 795 l 1
 318 691 l 1
 252 691 l 1xd8
EndSplineSet
EndChar

StartChar: Uacute
Encoding: 218 218 150
Width: 575
Flags: HMW
HStem: -2 60<196 295 196 312> 691 103<173 322 173 322> 696 20G<0 60 60 60 431 492 492 492>
VStem: 0 60<236 717 236 717 236 717> 431 60<236 717 236 717>
LayerCount: 2
Fore
SplineSet
246 -2 m 0xb8
 113 -2 4 102 0 234 c 1
 0 717 l 1
 60 717 l 1
 60 236 l 1
 64 137 146 58 246 58 c 0
 345 58 427 137 431 236 c 1
 431 717 l 1
 492 717 l 1
 492 236 l 1
 488 104 378 -2 246 -2 c 0xb8
322 795 m 1xd8
 240 691 l 1
 173 691 l 1
 255 795 l 1
 322 795 l 1xd8
EndSplineSet
EndChar

StartChar: Ucircumflex
Encoding: 219 219 151
Width: 575
Flags: HMW
HStem: -2 60<196 295 196 312> 696 20
VStem: 0 60<236 717 236 717 236 717> 431 60<236 717 236 717>
LayerCount: 2
Fore
SplineSet
246 -2 m 0
 113 -2 4 102 0 234 c 1
 0 717 l 1
 60 717 l 1
 60 236 l 1
 64 137 146 58 246 58 c 0
 345 58 427 137 431 236 c 1
 431 717 l 1
 492 717 l 1
 492 236 l 1
 488 104 378 -2 246 -2 c 0
330 696 m 1
 248 799 l 1
 167 696 l 1
 100 696 l 1
 248 882 l 1
 396 696 l 1
 330 696 l 1
EndSplineSet
EndChar

StartChar: Udieresis
Encoding: 220 220 152
Width: 575
Flags: HMW
HStem: -2 60<196 295 196 312> 696 20G<0 60 60 60 431 492 492 492> 701 61<144 206 144 206 288 349>
VStem: 0 60<236 717 236 717 236 717> 144 61<701 763 701 763> 288 61<701 763 701 763> 431 60<236 717 236 717>
LayerCount: 2
Fore
SplineSet
246 -2 m 0xde
 113 -2 4 102 0 234 c 1
 0 717 l 1
 60 717 l 1
 60 236 l 1
 64 137 146 58 246 58 c 0
 345 58 427 137 431 236 c 1
 431 717 l 1
 492 717 l 1
 492 236 l 1
 488 104 378 -2 246 -2 c 0xde
144 701 m 1xbe
 144 763 l 1
 206 763 l 1
 206 701 l 1
 144 701 l 1xbe
288 701 m 1
 288 763 l 1
 349 763 l 1
 349 701 l 1
 288 701 l 1
EndSplineSet
EndChar

StartChar: paragraph
Encoding: 182 182 153
Width: 454
Flags: HMW
HStem: 123 61<214 214 275 345> 514 61<214 407 275 275 275 345>
VStem: 0 61<306 393 306 410> 214 61<-53 123 -53 123 184 514> 345 61<-53 123 123 123 184 514 514 514>
LayerCount: 2
Fore
SplineSet
226 575 m 2
 407 575 l 1
 407 543 l 1
 407 -53 l 1
 345 -53 l 1
 345 123 l 1
 275 123 l 1
 275 -53 l 1
 214 -53 l 1
 214 123 l 1
 96 129 0 230 0 349 c 0
 0 471 102 575 226 575 c 2
61 349 m 0
 61 262 129 191 214 184 c 1
 214 514 l 1
 129 507 61 436 61 349 c 0
345 184 m 1
 345 514 l 1
 275 514 l 1
 275 184 l 1
 345 184 l 1
EndSplineSet
EndChar

StartChar: plusminus
Encoding: 177 177 154
Width: 387
Flags: HMW
HStem: 61 60<0 351 0 351> 307 61<0 142 0 142 204 351>
VStem: 142 61<143 307 143 307 369 514>
LayerCount: 2
Fore
SplineSet
351 369 m 1
 351 307 l 1
 204 307 l 1
 204 143 l 1
 142 143 l 1
 142 307 l 1
 0 307 l 1
 0 369 l 1
 142 369 l 1
 142 514 l 1
 204 514 l 1
 204 369 l 1
 351 369 l 1
0 122 m 1
 351 122 l 1
 351 61 l 1
 0 61 l 1
 0 122 l 1
EndSplineSet
EndChar

StartChar: agrave
Encoding: 224 224 155
Width: 524
Flags: HMW
HStem: 0 102<-2 389 110 433 110 500> 41 61<110 389 110 415 83 389> 573 8<249 249 249 289> 573 103<140 222 140 289>
VStem: -2 502<0 0>
LayerCount: 2
Fore
SplineSet
222 573 m 1xa8
 140 677 l 1
 207 677 l 1x98
 289 573 l 1
 222 573 l 1xa8
-2 0 m 1
 249 582 l 1
 500 0 l 1
 433 0 l 1xa8
 415 41 l 1
 83 41 l 1x68
 66 0 l 1
 -2 0 l 1
389 102 m 1
 249 427 l 1
 110 102 l 1
 389 102 l 1
EndSplineSet
EndChar

StartChar: aacute
Encoding: 225 225 156
Width: 527
Flags: HMW
HStem: 0 102<-2 389 110 433 110 500> 41 61<110 389 110 415 83 389> 571 10<249 249 249 273> 571 103<207 355 207 355>
VStem: -2 502<0 0>
LayerCount: 2
Fore
SplineSet
-2 0 m 1xa8
 249 582 l 1
 500 0 l 1
 433 0 l 1xa8
 415 41 l 1
 83 41 l 1x68
 66 0 l 1
 -2 0 l 1xa8
389 102 m 1
 249 427 l 1
 110 102 l 1
 389 102 l 1
355 675 m 1x98
 273 571 l 1
 207 571 l 1xa8
 289 675 l 1
 355 675 l 1x98
EndSplineSet
EndChar

StartChar: acircumflex
Encoding: 226 226 157
Width: 527
Flags: HMW
HStem: 0 102<-2 389 110 433 110 500> 41 61<110 389 110 415 83 389> 561 20G<249 249>
VStem: -2 502<0 0>
LayerCount: 2
Fore
SplineSet
-2 0 m 1xb0
 249 582 l 1
 500 0 l 1
 433 0 l 1xb0
 415 41 l 1
 83 41 l 1x70
 66 0 l 1
 -2 0 l 1xb0
389 102 m 1
 249 427 l 1
 110 102 l 1
 389 102 l 1
330 510 m 1
 248 612 l 1
 167 510 l 1
 100 510 l 1
 248 695 l 1
 396 510 l 1
 330 510 l 1
EndSplineSet
EndChar

StartChar: adieresis
Encoding: 228 228 158
Width: 527
Flags: HMW
HStem: 0 102<-2 389 110 433 110 500> 41 61<110 389 110 415 83 389> 561 20G<249 249> 562 61<146 208 146 208 290 351>
VStem: 146 61<562 624 562 624> 290 61<562 624 562 624>
LayerCount: 2
Fore
SplineSet
-2 0 m 1xac
 249 582 l 1
 500 0 l 1
 433 0 l 1xac
 415 41 l 1
 83 41 l 1x6c
 66 0 l 1
 -2 0 l 1xac
389 102 m 1
 249 427 l 1
 110 102 l 1
 389 102 l 1
146 562 m 1x9c
 146 624 l 1
 208 624 l 1
 208 562 l 1
 146 562 l 1x9c
290 562 m 1
 290 624 l 1
 351 624 l 1
 351 562 l 1
 290 562 l 1
EndSplineSet
EndChar

StartChar: egrave
Encoding: 232 232 159
Width: 444
Flags: HMW
HStem: 0 59<61 383 61 383> 308 59<61 383 61 383> 516 59<61 383 61 61> 573 103<111 193 111 259>
VStem: 0 61<59 308 368 516>
LayerCount: 2
Fore
SplineSet
0 0 m 1xe8
 0 575 l 1
 383 575 l 1
 383 516 l 1
 61 516 l 1
 61 368 l 1
 383 368 l 1
 383 308 l 1
 61 308 l 1
 61 59 l 1
 383 59 l 1
 383 0 l 1
 0 0 l 1xe8
193 573 m 1xd8
 111 677 l 1
 177 677 l 1xe8
 259 573 l 1
 193 573 l 1xd8
EndSplineSet
EndChar

StartChar: eacute
Encoding: 233 233 160
Width: 444
Flags: HMW
HStem: 0 59<61 383 61 383> 308 59<61 383 61 383> 516 59<61 383 61 61> 571 103<153 301 153 301>
VStem: 0 61<59 308 368 516>
LayerCount: 2
Fore
SplineSet
0 0 m 1xe8
 0 575 l 1
 383 575 l 1
 383 516 l 1
 61 516 l 1
 61 368 l 1
 383 368 l 1
 383 308 l 1
 61 308 l 1
 61 59 l 1
 383 59 l 1
 383 0 l 1
 0 0 l 1xe8
301 675 m 1
 219 571 l 1
 153 571 l 1xd8
 234 675 l 1
 301 675 l 1
EndSplineSet
EndChar

StartChar: ecircumflex
Encoding: 234 234 161
Width: 444
Flags: HMW
HStem: 0 59<61 383 61 383> 308 59<61 383 61 383> 516 59<61 383 61 61>
VStem: 0 61<59 308 368 516>
LayerCount: 2
Fore
SplineSet
0 0 m 1
 0 575 l 1
 383 575 l 1
 383 516 l 1
 61 516 l 1
 61 368 l 1
 383 368 l 1
 383 308 l 1
 61 308 l 1
 61 59 l 1
 383 59 l 1
 383 0 l 1
 0 0 l 1
274 573 m 1
 193 676 l 1
 112 573 l 1
 45 573 l 1
 193 759 l 1
 341 573 l 1
 274 573 l 1
EndSplineSet
EndChar

StartChar: edieresis
Encoding: 235 235 162
Width: 444
Flags: HMW
HStem: 0 59<61 383 61 383> 308 59<61 383 61 383> 516 59<61 383 61 61> 585 61<95 157 95 157 239 300>
VStem: 0 61<59 308 368 516> 95 61<585 646 585 646> 239 61<585 646 585 646>
LayerCount: 2
Fore
SplineSet
0 0 m 1
 0 575 l 1
 383 575 l 1
 383 516 l 1
 61 516 l 1
 61 368 l 1
 383 368 l 1
 383 308 l 1
 61 308 l 1
 61 59 l 1
 383 59 l 1
 383 0 l 1
 0 0 l 1
95 585 m 1xfe
 95 646 l 1
 157 646 l 1
 157 585 l 1
 95 585 l 1xfe
239 585 m 1
 239 646 l 1
 300 646 l 1
 300 585 l 1
 239 585 l 1
EndSplineSet
EndChar

StartChar: igrave
Encoding: 236 236 163
Width: 121
Flags: HMW
HStem: 0 22G<0 61 0 0> 574 103<-85 -3 -85 63>
VStem: 0 61<0 577 0 577>
LayerCount: 2
Fore
SplineSet
61 577 m 1
 61 0 l 1
 0 0 l 1
 0 577 l 1
 61 577 l 1
-3 574 m 1
 -85 678 l 1
 -18 678 l 1
 63 574 l 1
 -3 574 l 1
EndSplineSet
EndChar

StartChar: iacute
Encoding: 237 237 164
Width: 121
Flags: HMW
HStem: 0 22G<0 61 0 0> 571 103<-7 141 -7 141>
VStem: 0 61<0 577 0 577>
LayerCount: 2
Fore
SplineSet
61 577 m 1
 61 0 l 1
 0 0 l 1
 0 577 l 1
 61 577 l 1
141 675 m 1
 59 571 l 1
 -7 571 l 1
 75 675 l 1
 141 675 l 1
EndSplineSet
EndChar

StartChar: icircumflex
Encoding: 238 238 165
Width: 121
Flags: HMW
HStem: 0 22G<0 61 0 0> 532 44 697 20G<28 28>
VStem: 0 61<0 577 0 577>
LayerCount: 2
Fore
SplineSet
61 577 m 1
 61 0 l 1
 0 0 l 1
 0 577 l 1
 61 577 l 1
110 532 m 1
 28 635 l 1
 -53 532 l 1
 -120 532 l 1
 28 718 l 1
 176 532 l 1
 110 532 l 1
EndSplineSet
EndChar

StartChar: idieresis
Encoding: 239 239 166
Width: 121
Flags: HMW
HStem: 0 22G<0 61 0 0> 585 61<-73 -11 -73 -11 71 132>
VStem: -73 61<585 646 585 646> 0 61<0 577 0 577> 71 61<585 646 585 646>
LayerCount: 2
Fore
SplineSet
61 577 m 1
 61 0 l 1
 0 0 l 1
 0 577 l 1
 61 577 l 1
-73 585 m 1xf8
 -73 646 l 1
 -11 646 l 1
 -11 585 l 1
 -73 585 l 1xf8
71 585 m 1
 71 646 l 1
 132 646 l 1
 132 585 l 1
 71 585 l 1
EndSplineSet
EndChar

StartChar: ccedilla
Encoding: 231 231 167
Width: 427
Flags: HMW
HStem: -1 61<201 273 201 280> 522 61<201 272>
VStem: -3 61<228 355 228 365> 285 61<-150 -111 -194 -109>
LayerCount: 2
Fore
SplineSet
256 -1 m 0
 112 -1 -3 134 -3 292 c 0
 -3 437 100 584 256 584 c 0
 299 584 342 572 379 549 c 1
 347 497 l 1
 319 514 289 522 256 522 c 0
 146 522 58 419 58 292 c 0
 58 164 146 60 256 60 c 0
 291 60 325 72 355 92 c 1
 390 41 l 1
 350 13 303 -1 256 -1 c 0
228 -257 m 1
 228 -257 l 1
 228 -196 l 1
 266 -197 285 -162 285 -138 c 0
 285 -80 230 -82 228 -81 c 1
 200 -39 l 1
 228 35 l 1
 286 12 l 1
 270 -27 l 1
 314 -43 346 -83 346 -138 c 0
 346 -249 237 -257 228 -257 c 1
EndSplineSet
EndChar

StartChar: Ccedilla
Encoding: 199 199 168
Width: 504
Flags: HMW
HStem: -1 61<245 340 245 346> 658 61<245 339>
VStem: -8 61<277 442 277 450> 348 61<-154 -115 -198 -113>
LayerCount: 2
Fore
SplineSet
318 -1 m 0
 135 -1 -8 164 -8 359 c 0
 -8 539 118 720 318 720 c 0
 369 720 419 708 464 682 c 1
 434 629 l 1
 398 648 359 658 318 658 c 0
 172 658 53 524 53 359 c 0
 53 194 172 60 318 60 c 0
 362 60 407 72 445 96 c 1
 478 44 l 1
 430 14 373 -1 318 -1 c 0
292 -261 m 1
 292 -261 l 1
 292 -200 l 1
 330 -201 348 -166 348 -142 c 0
 348 -84 294 -86 292 -85 c 1
 263 -43 l 1
 292 31 l 1
 349 8 l 1
 334 -31 l 1
 378 -47 410 -87 410 -142 c 0
 410 -253 301 -261 292 -261 c 1
EndSplineSet
EndChar

StartChar: ograve
Encoding: 242 242 169
Width: 605
Flags: HMW
HStem: -5 61<222 346 222 364> 522 61<222 346> 573 10<256 256 256 323>
VStem: -3 61<226 352 226 369> 510 61<226 352>
LayerCount: 2
Fore
SplineSet
284 -5 m 0xb8
 125 -5 -3 131 -3 289 c 0
 -3 450 128 584 284 584 c 0
 441 584 571 451 571 289 c 0
 571 130 444 -5 284 -5 c 0xb8
284 522 m 0xd8
 161 522 58 416 58 289 c 0
 58 163 160 56 284 56 c 0
 409 56 510 164 510 289 c 0
 510 416 409 522 284 522 c 0xd8
256 573 m 1xb8
 174 677 l 1
 241 677 l 1
 323 573 l 1
 256 573 l 1xb8
EndSplineSet
EndChar

StartChar: oacute
Encoding: 243 243 170
Width: 605
Flags: HMW
HStem: -5 61<222 346 222 364> 522 61<222 346> 573 10<228 295 228 228>
VStem: -3 61<226 352 226 369> 510 61<226 352>
LayerCount: 2
Fore
SplineSet
284 -5 m 0xb8
 125 -5 -3 131 -3 289 c 0
 -3 450 128 584 284 584 c 0
 441 584 571 451 571 289 c 0
 571 130 444 -5 284 -5 c 0xb8
284 522 m 0xd8
 161 522 58 416 58 289 c 0
 58 163 160 56 284 56 c 0
 409 56 510 164 510 289 c 0
 510 416 409 522 284 522 c 0xd8
377 677 m 1
 295 573 l 1
 228 573 l 1xb8
 310 677 l 1
 377 677 l 1
EndSplineSet
EndChar

StartChar: ocircumflex
Encoding: 244 244 171
Width: 605
Flags: HMW
HStem: -5 772<282 282 282 364>
VStem: -3 574<210 369>
LayerCount: 2
Fore
SplineSet
284 -5 m 0
 444 -5 571 130 571 289 c 0
 571 451 441 584 284 584 c 0
 128 584 -3 450 -3 289 c 0
 -3 131 125 -5 284 -5 c 0
284 522 m 0
 409 522 510 416 510 289 c 0
 510 164 409 56 284 56 c 0
 160 56 58 163 58 289 c 0
 58 416 161 522 284 522 c 0
364 582 m 1
 282 684 l 1
 201 582 l 1
 134 582 l 1
 282 767 l 1
 430 582 l 1
 364 582 l 1
EndSplineSet
EndChar

StartChar: odieresis
Encoding: 246 246 172
Width: 605
Flags: HMW
HStem: 590 61<180 242 180 242 324 385>
VStem: 180 61<590 651 590 651> 324 61<590 651 590 651>
LayerCount: 2
Fore
SplineSet
284 -5 m 0
 444 -5 571 130 571 289 c 0
 571 451 441 584 284 584 c 0
 128 584 -3 450 -3 289 c 0
 -3 131 125 -5 284 -5 c 0
284 522 m 0
 409 522 510 416 510 289 c 0
 510 164 409 56 284 56 c 0
 160 56 58 163 58 289 c 0
 58 416 161 522 284 522 c 0
180 590 m 1
 180 651 l 1
 242 651 l 1
 242 590 l 1
 180 590 l 1
324 590 m 1
 324 651 l 1
 385 651 l 1
 385 590 l 1
 324 590 l 1
EndSplineSet
EndChar

StartChar: ugrave
Encoding: 249 249 173
Width: 556
Flags: HMW
HStem: -2 60<196 295 196 312> 559 103<163 245 163 311>
VStem: 0 60<236 575 236 575 236 575> 431 60<236 575 236 575>
LayerCount: 2
Fore
SplineSet
246 -2 m 0
 113 -2 4 102 0 234 c 1
 0 575 l 1
 60 575 l 1
 60 236 l 1
 64 137 146 58 246 58 c 0
 345 58 427 137 431 236 c 1
 431 575 l 1
 492 575 l 1
 492 236 l 1
 488 104 378 -2 246 -2 c 0
245 559 m 1
 163 663 l 1
 229 663 l 1
 311 559 l 1
 245 559 l 1
EndSplineSet
EndChar

StartChar: uacute
Encoding: 250 250 174
Width: 556
Flags: HMW
HStem: -2 60<196 295 196 312> 553 103<186 335 186 335>
VStem: 0 60<236 575 236 575 236 575> 431 60<236 575 236 575>
LayerCount: 2
Fore
SplineSet
246 -2 m 0
 113 -2 4 102 0 234 c 1
 0 575 l 1
 60 575 l 1
 60 236 l 1
 64 137 146 58 246 58 c 0
 345 58 427 137 431 236 c 1
 431 575 l 1
 492 575 l 1
 492 236 l 1
 488 104 378 -2 246 -2 c 0
335 656 m 1
 253 553 l 1
 186 553 l 1
 268 656 l 1
 335 656 l 1
EndSplineSet
EndChar

StartChar: ucircumflex
Encoding: 251 251 175
Width: 556
Flags: HMW
HStem: -2 60<196 295 196 312> 553 23
VStem: 0 60<236 575 236 575 236 575> 431 60<236 575 236 575>
LayerCount: 2
Fore
SplineSet
246 -2 m 0
 113 -2 4 102 0 234 c 1
 0 575 l 1
 60 575 l 1
 60 236 l 1
 64 137 146 58 246 58 c 0
 345 58 427 137 431 236 c 1
 431 575 l 1
 492 575 l 1
 492 236 l 1
 488 104 378 -2 246 -2 c 0
331 553 m 1
 249 655 l 1
 168 553 l 1
 101 553 l 1
 249 738 l 1
 397 553 l 1
 331 553 l 1
EndSplineSet
EndChar

StartChar: udieresis
Encoding: 252 252 176
Width: 556
Flags: HMW
HStem: -2 60<196 295 196 312> 562 61<146 208 146 208 290 351>
VStem: 0 60<236 575 236 575 236 575> 146 61<562 624 562 624> 290 61<562 624 562 624> 431 60<236 575 236 575>
LayerCount: 2
Fore
SplineSet
246 -2 m 0
 113 -2 4 102 0 234 c 1
 0 575 l 1
 60 575 l 1
 60 236 l 1
 64 137 146 58 246 58 c 0
 345 58 427 137 431 236 c 1
 431 575 l 1
 492 575 l 1
 492 236 l 1
 488 104 378 -2 246 -2 c 0
146 562 m 1
 146 624 l 1
 208 624 l 1
 208 562 l 1
 146 562 l 1
290 562 m 1
 290 624 l 1
 351 624 l 1
 351 562 l 1
 290 562 l 1
EndSplineSet
EndChar

StartChar: a_i
Encoding: 65559 -1 177
Width: 539
Flags: HMW
HStem: 2 263<237 294 237 294> 289 52<137 373 137 412 96 373>
VStem: 237 57<2 265 2 265>
LayerCount: 2
Fore
SplineSet
294 265 m 1
 294 2 l 1
 237 2 l 1
 237 265 l 1
 294 265 l 1
-2 250 m 1x60
 256 586 l 1
 514 250 l 1
 440 250 l 1
 440 250 429 265 412 289 c 1
 96 289 l 1
 78 265 67 250 67 250 c 1
 -2 250 l 1x60
256 501 m 1
 137 341 l 1
 373 341 l 1
 256 501 l 1
EndSplineSet
Ligature2: "'salt' Stylistic Alternatives in Latin lookup 5 subtable" a.alt i
Ligature2: "'liga' Standard Ligatures in Latin lookup 1 subtable" a i
EndChar

StartChar: o_u
Encoding: 65560 -1 178
Width: 576
Flags: HMW
HStem: -2 60<196 295 196 312> 209 51<199 292 199 312> 523 52<200 293>
VStem: 0 60<234 236> 10 60<357 427 357 442> 424 59<357 427>
LayerCount: 2
Fore
SplineSet
247 575 m 0xec
 377 575 483 492 483 392 c 0
 483 292 377 209 247 209 c 0
 117 209 10 292 10 392 c 0
 10 492 117 575 247 575 c 0xec
247 523 m 0
 154 523 71 462 71 392 c 0
 71 321 153 260 246 260 c 0
 339 260 424 321 424 392 c 0
 424 462 340 523 247 523 c 0
246 -2 m 0xf4
 113 -2 4 102 0 234 c 1
 60 236 l 1
 64 137 146 58 246 58 c 0
 345 58 427 137 431 236 c 1
 492 236 l 1
 488 104 378 -2 246 -2 c 0xf4
EndSplineSet
Ligature2: "'liga' Standard Ligatures in Latin lookup 1 subtable" o u
EndChar

StartChar: a_n
Encoding: 65561 -1 179
Width: 482
Flags: HMW
HStem: -1 22G<0 59 0 0 444 444> 342 46<128 306 128 342 90 306> 564 20G<217 217>
VStem: 0 59<-1 178 -1 269> 385 59<86 270 -1 270>
LayerCount: 2
Fore
SplineSet
-6 302 m 1
 217 585 l 1
 442 302 l 1
 372 302 l 1
 372 302 358 320 342 342 c 1
 90 342 l 1
 73 320 59 302 59 302 c 1
 -6 302 l 1
217 505 m 1
 128 388 l 1
 306 388 l 1
 217 505 l 1
444 270 m 1
 444 -1 l 1
 59 178 l 1
 59 -1 l 1
 0 -1 l 1
 0 269 l 1
 385 86 l 1
 385 270 l 1
 444 270 l 1
EndSplineSet
Ligature2: "'liga' Standard Ligatures in Latin lookup 1 subtable" a n
EndChar

StartChar: o_n
Encoding: 65562 -1 180
Width: 553
Flags: HMW
HStem: -1 22G<0 59 0 0 501 501> 228 50<198 291 198 311> 525 51<199 292>
VStem: 0 59<-1 178 -1 269> 9 60<369 436 369 450> 423 59<369 436> 441 59<85 270 -1 270>
LayerCount: 2
Fore
SplineSet
501 270 m 1xf2
 501 -1 l 1
 59 178 l 1
 59 -1 l 1
 0 -1 l 1
 0 269 l 1
 441 85 l 1
 441 270 l 1
 501 270 l 1xf2
246 577 m 0xec
 376 577 482 497 482 402 c 0
 482 307 376 228 246 228 c 0
 116 228 9 307 9 402 c 0
 9 497 116 577 246 577 c 0xec
246 525 m 0
 153 525 70 469 70 402 c 0
 70 334 152 279 245 279 c 0
 338 279 423 334 423 402 c 0
 423 469 339 525 246 525 c 0
EndSplineSet
Ligature2: "'liga' Standard Ligatures in Latin lookup 1 subtable" o n
EndChar

StartChar: u_n
Encoding: 65563 -1 181
Width: 532
Flags: HMW
HStem: -1 22G<0 59 0 0 501 501> 260 60<196 295 196 312>
VStem: 0 59<-1 178 -1 269> 431 60<498 575 498 575> 441 59<85 270 -1 270>
LayerCount: 2
Fore
SplineSet
246 260 m 0xe8
 113 260 4 366 0 498 c 1
 0 575 l 1
 60 575 l 1
 60 498 l 1
 64 399 146 321 246 321 c 0
 345 321 427 399 431 498 c 1
 431 575 l 1
 492 575 l 1
 492 498 l 1xf0
 488 366 378 260 246 260 c 0xe8
501 270 m 1
 501 -1 l 1
 59 178 l 1
 59 -1 l 1
 0 -1 l 1
 0 269 l 1
 441 85 l 1
 441 270 l 1
 501 270 l 1
EndSplineSet
Ligature2: "'liga' Standard Ligatures in Latin lookup 1 subtable" u n
EndChar

StartChar: o_i
Encoding: 65564 -1 182
Width: 500
Flags: HMW
HStem: 0 22G<203 264 203 203> 0 212<203 264 203 264> 228 50<187 280 187 300> 525 51<188 281>
VStem: -2 60<369 436 369 450> 203 61<0 212 0 212> 412 59<369 436>
LayerCount: 2
Fore
SplineSet
264 212 m 1x7e
 264 0 l 1
 203 0 l 1
 203 212 l 1
 264 212 l 1x7e
234 577 m 0
 364 577 471 497 471 402 c 0
 471 307 364 228 234 228 c 0xbe
 104 228 -2 307 -2 402 c 0
 -2 497 104 577 234 577 c 0
234 525 m 0
 141 525 58 469 58 402 c 0
 58 334 140 279 233 279 c 0xbe
 326 279 412 334 412 402 c 0
 412 469 327 525 234 525 c 0
EndSplineSet
Ligature2: "'liga' Standard Ligatures in Latin lookup 1 subtable" o i
EndChar

StartChar: e_a_u
Encoding: 65565 -1 183
Width: 454
Flags: HMW
HStem: -2 60<155 249> 190 8<71 418> 376 52<13 408 65 408 65 408> 450 52<65 408 65 408> 523 52<65 408 65 65>
VStem: 0 60<144 169 144 169> 13 51<428 450 502 523> 349 60<144 170>
LayerCount: 2
Fore
SplineSet
205 -2 m 0xeb
 103 -2 0 61 0 169 c 1
 60 169 l 1xfb
 60 119 105 58 205 58 c 0
 304 58 349 119 349 170 c 1
 410 170 l 1
 409 64 293 -2 205 -2 c 0xeb
13 376 m 1
 13 575 l 1
 408 575 l 1
 408 523 l 1
 65 523 l 1
 65 502 l 1
 408 502 l 1
 408 450 l 1
 65 450 l 1
 65 428 l 1
 408 428 l 1
 408 376 l 1xeb
 13 376 l 1
185 360 m 1
 -2 190 l 1
 62 190 l 1
 71 199 l 1
 344 199 l 1xed
 348 194 351 190 351 190 c 1
 418 190 l 1
 236 360 l 1
 185 360 l 1
211 322 m 1
 298 241 l 1
 120 241 l 1
 211 322 l 1
EndSplineSet
Ligature2: "'liga' Standard Ligatures in Latin lookup 1 subtable" e a u
EndChar

StartChar: e.alt
Encoding: 65566 -1 184
Width: 468
Flags: HMW
HStem: 0 52<0 383 0 383> 332 52<0 383 0 383> 524 52<0 383 0 383>
VStem: 0 383<0 52 0 52 332 384 0 384 524 577>
LayerCount: 2
Fore
SplineSet
0 524 m 1
 0 577 l 1
 383 577 l 1
 383 524 l 1
 0 524 l 1
0 0 m 1
 0 52 l 1
 383 52 l 1
 383 0 l 1
 0 0 l 1
0 332 m 1
 0 384 l 1
 383 384 l 1
 383 332 l 1
 0 332 l 1
EndSplineSet
EndChar

StartChar: l_l
Encoding: 65567 -1 185
Width: 349
Flags: HMW
HStem: 0 60<60 306 60 306> 92 60<151 306 151 306>
VStem: 0 60<60 575 60 575 60 575> 90 60<153 575 153 575 153 575>
LayerCount: 2
Fore
SplineSet
306 92 m 1
 90 92 l 1
 90 575 l 1
 151 575 l 1
 151 153 l 1xf0
 306 153 l 1
 306 92 l 1
306 0 m 1
 0 0 l 1
 0 575 l 1
 60 575 l 1
 60 60 l 1xe0
 306 60 l 1
 306 0 l 1
EndSplineSet
Ligature2: "'liga' Standard Ligatures in Latin lookup 0 subtable" l l
EndChar

StartChar: r.alt
Encoding: 65568 -1 186
Width: 389
Flags: HMW
HStem: -178 61<640 717 640 723> 0 22G<0 61 0 0> 131 61<98 117> 518 61<94 126 88 144>
VStem: 0 61<0 135 199 516> 265 61<329 403 319 407>
LayerCount: 2
Fore
SplineSet
228 171 m 1
 221 167 l 1
 254 124 314 55 395 -5 c 0
 493 -79 592 -117 688 -117 c 0
 746 -117 805 -103 861 -75 c 1
 888 -130 l 1
 823 -162 757 -178 689 -178 c 0
 580 -178 467 -136 357 -53 c 0
 265 17 198 97 165 140 c 1
 146 134 126 131 108 131 c 0
 90 131 73 133 61 135 c 1
 61 0 l 1
 0 0 l 1
 0 569 l 1
 27 573 l 2
 32 574 76 580 98 580 c 0
 153 580 209 561 250 527 c 0
 285 498 327 446 327 360 c 0
 327 277 289 223 228 171 c 1
210 236 m 0
 235 259 265 298 265 360 c 0
 265 453 190 518 98 518 c 0
 90 518 74 517 61 516 c 1
 61 199 l 1
 69 196 85 193 108 193 c 0
 142 193 180 209 210 236 c 0
EndSplineSet
EndChar

StartChar: s.alt
Encoding: 65569 -1 187
Width: 331
Flags: HMW
HStem: 0 61<140 165 140 182> 514 61<119 142>
VStem: -3 61<398 455 398 484> 251 61<144 216>
LayerCount: 2
Fore
SplineSet
140 0 m 1
 140 61 l 1
 190 61 251 121 251 168 c 0
 251 263 187 270 136 286 c 0
 62 310 -3 341 -3 429 c 0
 -3 540 82 575 142 575 c 1
 142 514 l 1
 95 514 58 481 58 429 c 0
 58 367 108 358 155 345 c 1
 244 314 312 278 312 168 c 0
 312 85 223 0 140 0 c 1
EndSplineSet
EndChar

StartChar: c_c
Encoding: 65570 -1 188
Width: 412
Flags: HMW
HStem: -1 61<201 273 201 280> 79 60<218 260 218 280> 440 63<218 260> 522 61<201 272>
VStem: -3 61<228 355 228 365> 75 58<253 330 253 345>
LayerCount: 2
Fore
SplineSet
256 -1 m 0
 112 -1 -3 134 -3 292 c 0
 -3 437 100 584 256 584 c 0
 299 584 342 572 379 549 c 1
 347 497 l 1
 319 514 289 522 256 522 c 0
 146 522 58 419 58 292 c 0
 58 164 146 60 256 60 c 0
 291 60 325 72 355 92 c 1
 390 41 l 1
 350 13 303 -1 256 -1 c 0
263 79 m 0xfc
 158 79 75 176 75 292 c 0
 75 397 149 504 263 504 c 0
 296 504 323 488 351 472 c 1
 315 425 l 1
 296 436 269 440 250 440 c 0
 187 440 133 368 133 292 c 0
 133 215 187 139 250 139 c 0
 269 139 304 147 326 163 c 1
 355 114 l 1
 326 94 297 79 263 79 c 0xfc
EndSplineSet
Ligature2: "'liga' Standard Ligatures in Latin lookup 0 subtable" c c
EndChar

StartChar: d_d
Encoding: 65571 -1 189
Width: 603
Flags: HMW
HStem: -1 57<144 147 144 171 144 147 144 292> 523 58
VStem: 0 61<63 516 63 568 63 568> 147 61<61 518 61 523 61 523> 345 61<244 335 244 338> 493 61<226 350>
LayerCount: 2
Fore
SplineSet
292 -1 m 0
 233 -1 197 -1 144 -1 c 0
 98 -1 60 1 28 5 c 1
 0 7 l 1
 0 568 l 1
 25 571 l 2
 59 575 102 580 144 580 c 0
 194 580 240 582 292 582 c 0
 438 582 554 445 554 288 c 0
 554 142 451 -1 292 -1 c 0
345 288 m 0
 345 389 288 486 209 518 c 1
 209 61 l 1
 288 92 345 185 345 288 c 0
61 516 m 1
 61 63 l 1
 89 57 115 56 144 56 c 2
 147 56 l 1
 147 523 l 1
 144 523 l 2
 117 523 88 522 61 516 c 1
407 288 m 0
 407 200 369 112 304 56 c 1
 408 64 493 164 493 288 c 0
 493 413 406 518 300 523 c 1
 365 468 407 382 407 288 c 0
EndSplineSet
Ligature2: "'liga' Standard Ligatures in Latin lookup 0 subtable" d d
EndChar

StartChar: f_f
Encoding: 64256 64256 190
Width: 487
Flags: HMW
HStem: 0 22G<0 0 0 60 122 182 122 122> 332 52<60 114 60 114 182 425> 450 52<182 425 182 182> 523 52<60 425 60 60>
VStem: 0 60<0 332 384 523> 122 60<0 332 384 450>
LayerCount: 2
Fore
SplineSet
0 0 m 1
 0 575 l 1
 425 575 l 1
 425 523 l 1
 60 523 l 1
 60 384 l 1
 114 384 l 1
 114 332 l 1
 60 332 l 1
 60 0 l 1
 0 0 l 1
122 0 m 1
 122 502 l 1
 425 502 l 1
 425 450 l 1
 182 450 l 1xfc
 182 384 l 1
 425 384 l 1
 425 332 l 1
 182 332 l 1
 182 0 l 1
 122 0 l 1
EndSplineSet
Ligature2: "'liga' Standard Ligatures in Latin lookup 0 subtable" f f
EndChar

StartChar: m_m
Encoding: 65572 -1 191
Width: 1080
Flags: HMW
HStem: -5 22G<267 267 741 741> 0 22G<0 60 0 0 474 535 474 474 948 1009 948 948>
VStem: 0 60<0 367 0 589> 474 60<0 389 389 389> 948 60<0 366 366 366>
CounterMasks: 1 38
LayerCount: 2
Fore
SplineSet
1009 589 m 1x78
 1009 0 l 1
 948 0 l 1x78
 948 366 l 1
 946 358 l 1
 741 -5 l 1xb8
 537 382 l 1
 535 390 l 1
 535 0 l 1
 474 0 l 1x78
 474 389 l 1
 472 382 l 1
 267 -5 l 1xb8
 62 358 l 1
 60 367 l 1
 60 0 l 1
 0 0 l 1
 0 589 l 1
 265 126 l 1
 267 120 l 1
 269 126 l 1
 504 580 l 1
 739 126 l 1
 741 120 l 1
 743 126 l 1
 1009 589 l 1x78
EndSplineSet
Ligature2: "'liga' Standard Ligatures in Latin lookup 0 subtable" m m
EndChar

StartChar: n_n
Encoding: 65573 -1 192
Width: 1018
Flags: HMW
HStem: 0 22G<0 61 0 0>
VStem: 0 61<0 433 0 586> 447 61<144 433 -6 586> 897 59<142 575 -6 575>
LayerCount: 2
Fore
SplineSet
956 575 m 1
 956 -6 l 1
 509 433 l 1
 509 -6 l 1
 61 433 l 1
 61 0 l 1
 0 0 l 1
 0 586 l 1
 447 144 l 1
 447 586 l 1
 897 142 l 1
 897 575 l 1
 956 575 l 1
EndSplineSet
Ligature2: "'liga' Standard Ligatures in Latin lookup 0 subtable" n n
EndChar

StartChar: p_p
Encoding: 65574 -1 193
Width: 466
Flags: HMW
HStem: 0 22G<0 61 0 0 117 178 117 117> 129 59<98 117 106 117> 515 60
VStem: 0 61<0 133 0 193 193 512> 117 61<0 129 129 129 199 506> 262 61<324 389> 379 61<306 395>
LayerCount: 2
Fore
SplineSet
178 133 m 1
 178 0 l 1
 117 0 l 1
 117 129 l 1
 106 129 l 2
 89 129 73 131 61 133 c 1
 61 0 l 1
 0 0 l 1
 0 569 l 1
 27 570 l 2
 87 573 147 575 214 575 c 0
 268 575 326 556 366 523 c 0
 400 495 440 441 440 357 c 0
 440 227 332 129 223 129 c 0
 206 129 190 131 178 133 c 1
61 512 m 1
 61 193 l 1
 69 190 84 188 106 188 c 2
 117 188 l 1
 117 514 l 1
 110 514 103 515 97 515 c 0
 90 515 74 514 61 512 c 1
262 357 m 0
 262 419 228 480 178 506 c 1
 178 199 l 1
 221 223 262 279 262 357 c 0
324 357 m 0
 324 290 296 234 254 193 c 1
 308 206 379 255 379 357 c 0
 379 432 331 489 265 508 c 1
 294 477 324 428 324 357 c 0
EndSplineSet
LCarets2: 1 0 
Ligature2: "'liga' Standard Ligatures in Latin lookup 0 subtable" p p
EndChar

StartChar: s_s
Encoding: 65575 -1 194
Width: 536
Flags: HMW
HStem: 1 58<120 175 294 314> 521 58<137 168 290 347>
VStem: -3 61<140 141> 12 61<398 453 398 469> 165 61<408 456> 255 61<125 173 125 186> 407 61<439 440 439 447> 437 61<162 196 131 201>
LayerCount: 2
Fore
SplineSet
442 283 m 0xd9
 480 252 499 216 499 175 c 0
 499 86 405 1 300 1 c 0
 272 1 249 7 234 13 c 1
 212 5 189 1 162 1 c 0
 -4 1 -3 139 -3 141 c 1
 58 142 l 1xe9
 58 122 78 59 162 59 c 0
 224 59 255 87 255 141 c 0
 255 231 12 274 12 424 c 0
 12 514 75 580 165 580 c 0
 194 580 217 572 233 566 c 1
 252 574 276 580 304 580 c 0
 469 580 468 440 468 439 c 2
 407 438 l 1xde
 407 455 389 521 304 521 c 0
 244 521 226 495 226 439 c 0
 226 376 365 346 442 283 c 0xd9
398 98 m 0xdd
 423 121 437 149 437 175 c 0
 437 227 377 260 309 293 c 0
 226 334 165 373 165 439 c 0
 165 472 170 498 182 520 c 1xd9
 177 520 171 521 165 521 c 0
 110 521 74 482 74 424 c 0
 74 372 129 334 187 297 c 1
 262 248 316 203 316 141 c 0
 316 109 309 82 294 59 c 1
 334 59 369 70 398 98 c 0xdd
EndSplineSet
Ligature2: "'liga' Standard Ligatures in Latin lookup 0 subtable" s s
EndChar

StartChar: t_t
Encoding: 65576 -1 195
Width: 734
Flags: HMW
HStem: 0 22G<202 262 202 202 423 423 423 483> 437 60<275 423 275 695 483 695 483 483> 516 60<-28 202 -28 485 262 485 262 262>
VStem: 202 60<0 516 0 516> 423 60<0 437 0 437>
LayerCount: 2
Fore
SplineSet
485 516 m 1
 262 516 l 1
 262 0 l 1
 202 0 l 1
 202 516 l 1
 -28 516 l 1
 -28 577 l 1
 485 577 l 1
 485 516 l 1
695 437 m 1xf8
 483 437 l 1
 483 0 l 1
 423 0 l 1
 423 437 l 1
 275 437 l 1
 275 498 l 1
 695 498 l 1
 695 437 l 1xf8
EndSplineSet
Ligature2: "'liga' Standard Ligatures in Latin lookup 0 subtable" t t
EndChar

StartChar: a.alt
Encoding: 65577 -1 196
Width: 526
Flags: HMW
HStem: 0 22G<-2 66 -2 -2 427 427 427 494>
VStem: -2 496<0 0>
LayerCount: 2
Fore
SplineSet
246 428 m 1
 245 425 l 1
 66 0 l 1
 -2 0 l 1
 246 581 l 1
 494 0 l 1
 427 0 l 1
 247 425 l 1
 246 428 l 1
EndSplineSet
EndChar

StartChar: q.alt
Encoding: 65578 -1 197
Width: 617
Flags: HMW
HStem: -218 60<816 884 801 892> -8 58<253 293 253 305> 126 61<154 192> 522 58<253 345>
VStem: -4 61<265 317 265 366> 508 61<247 350>
LayerCount: 2
Fore
SplineSet
1055 -65 m 1
 1095 -112 l 1
 1011 -186 932 -218 852 -218 c 0
 780 -218 709 -193 618 -135 c 0
 548 -91 478 -32 408 20 c 1
 369 2 327 -8 283 -8 c 0
 124 -8 -4 128 -4 286 c 0
 -4 447 127 581 283 581 c 0
 439 581 569 449 569 286 c 0
 569 196 531 115 463 56 c 1
 614 -65 751 -158 852 -158 c 0
 917 -158 982 -128 1055 -65 c 1
124 452 m 0
 81 408 57 348 57 286 c 0
 57 245 68 206 87 171 c 1
 98 177 123 187 163 187 c 0
 234 187 321 154 410 93 c 1
 472 138 508 209 508 286 c 0
 508 414 407 522 283 522 c 0
 224 522 166 495 124 452 c 0
283 50 m 0
 305 50 330 56 350 62 c 1
 292 96 221 126 163 126 c 0
 145 126 132 123 125 121 c 1
 167 77 224 50 283 50 c 0
EndSplineSet
EndChar

StartChar: o.alt
Encoding: 65579 -1 198
Width: 431
Flags: HMW
HStem: -10 61<148 222 148 239> 516 61<148 222>
VStem: 0 61<186 381> 309 61<186 381>
LayerCount: 2
Fore
SplineSet
185 -10 m 0
 77 -10 0 77 0 186 c 2
 0 381 l 2
 0 490 77 578 185 578 c 0
 293 578 371 490 371 381 c 2
 371 186 l 2
 371 77 293 -10 185 -10 c 0
185 516 m 0
 111 516 61 456 61 381 c 2
 61 186 l 2
 61 111 111 51 185 51 c 0
 259 51 309 111 309 186 c 2
 309 381 l 2
 309 456 259 516 185 516 c 0
EndSplineSet
EndChar

StartChar: ae
Encoding: 230 230 199
Width: 746
Flags: HMW
HStem: 0 52<384 705 384 705> 332 52<294 322 294 322 262 322 383 705> 528 52<383 705 383 383>
VStem: 322 61<0 332 332 332 332 384 435 435>
LayerCount: 2
Fore
SplineSet
-6 0 m 1
 346 581 l 1
 705 581 l 1
 705 528 l 1
 383 528 l 1
 383 384 l 1
 705 384 l 1
 705 332 l 1
 383 332 l 1
 384 52 l 1
 705 52 l 1
 705 0 l 1
 322 0 l 1
 322 332 l 1
 262 332 l 1
 72 0 l 1
 -6 0 l 1
322 384 m 1
 324 446 l 1
 322 435 l 1
 294 384 l 1
 322 384 l 1
EndSplineSet
EndChar

StartChar: oe
Encoding: 339 339 200
Width: 835
Flags: HMW
HStem: -5 61<222 292> 0 52<454 776 454 776> 0 56<336 346 222 776 336 336> 332 52<568 776 568 568> 522 61<222 294 206 346> 524 52<455 776 455 455>
VStem: -3 61<226 352 226 369> 510 61<241 296 241 352>
LayerCount: 2
Fore
SplineSet
284 -5 m 0x9b
 125 -5 -3 131 -3 289 c 0x5b
 -3 450 128 584 284 584 c 0
 304 584 326 581 345 577 c 1
 776 577 l 1
 776 524 l 1
 455 524 l 1
 501 488 537 440 555 384 c 1
 776 384 l 1
 776 332 l 1
 568 332 l 1
 570 318 571 303 571 289 c 0
 571 194 526 106 454 52 c 1
 776 52 l 1
 776 0 l 1x57
 336 0 l 1
 320 -3 301 -5 284 -5 c 0x9b
284 522 m 0x9b
 161 522 58 416 58 289 c 0
 58 163 160 56 284 56 c 0
 409 56 510 164 510 289 c 0x3b
 510 416 409 522 284 522 c 0x9b
EndSplineSet
EndChar

StartChar: multiply
Encoding: 215 215 201
Width: 333
Flags: HMW
HStem: 148 307<248 260>
VStem: -2 305<191 411>
LayerCount: 2
Fore
SplineSet
248 456 m 1
 292 412 l 1
 187 308 l 1
 303 191 l 1
 260 148 l 1
 143 264 l 1
 43 164 l 1
 0 207 l 1
 100 308 l 1
 -2 411 l 1
 41 454 l 1
 143 351 l 1
 248 456 l 1
EndSplineSet
EndChar

StartChar: bullet
Encoding: 8226 8226 202
Width: 306
Flags: HMW
HStem: 177 262<96 170>
VStem: 2 262<271 345>
LayerCount: 2
Fore
SplineSet
2 308 m 0
 2 382 59 439 133 439 c 0
 207 439 264 382 264 308 c 0
 264 234 207 177 133 177 c 0
 59 177 2 234 2 308 c 0
EndSplineSet
EndChar

StartChar: at
Encoding: 64 64 203
Width: 498
Flags: HMW
HStem: 89 55<199 248> 92 61<354 360 354 383> 340 55<238 267> 424 55<210 300>
VStem: 2 61<245 289 245 307> 109 61<203 258 203 294> 271 54<234 234> 285 61<296 315> 388 61<204 297 197 303>
LayerCount: 2
Fore
SplineSet
227 89 m 0x9e80
 149 89 109 135 109 224 c 0
 109 364 222 395 252 395 c 0
 315 395 346 334 346 296 c 1
 285 296 l 1xbd80
 286 298 282 340 252 340 c 0
 224 340 170 292 170 224 c 0
 170 181 171 144 227 144 c 0
 270 144 271 234 271 234 c 1xbe80
 326 234 l 1
 331 193 345 153 354 154 c 1
 365 154 388 158 388 251 c 0
 388 354 343 424 256 424 c 0
 165 424 63 334 63 245 c 1
 2 245 l 1
 2 370 132 479 256 479 c 0
 402 479 450 344 450 251 c 0
 450 143 414 92 352 92 c 0x5e80
 324 92 307 125 299 151 c 1
 290 126 269 89 227 89 c 0x9e80
EndSplineSet
EndChar

StartChar: quotedbl
Encoding: 34 34 204
Width: 222
Flags: HMW
HStem: 520 197<50 62 0 112 91 91 91 112 141 154>
VStem: 0 203<520 717>
LayerCount: 2
Fore
SplineSet
62 520 m 1
 0 520 l 1
 50 717 l 1
 112 717 l 1
 62 520 l 1
154 520 m 1
 91 520 l 1
 141 717 l 1
 203 717 l 1
 154 520 l 1
EndSplineSet
EndChar

StartChar: logicalnot
Encoding: 172 172 205
Width: 433
Flags: HMW
HStem: 307 60<0 313 0 374>
VStem: 313 60<219 307 307 307>
LayerCount: 2
Fore
SplineSet
313 219 m 1
 313 307 l 1
 0 307 l 1
 0 368 l 1
 374 368 l 1
 374 219 l 1
 313 219 l 1
EndSplineSet
EndChar

StartChar: brokenbar
Encoding: 166 166 206
Width: 105
Flags: HMW
HStem: -41 790<0 60 0 60>
VStem: 0 60<-41 323 -41 323 385 749>
LayerCount: 2
Fore
SplineSet
0 385 m 1
 0 749 l 1
 60 749 l 1
 60 385 l 1
 0 385 l 1
0 -41 m 1
 0 323 l 1
 60 323 l 1
 60 -41 l 1
 0 -41 l 1
EndSplineSet
EndChar

StartChar: degree
Encoding: 176 176 207
Width: 291
Flags: HMW
HStem: 466 48<110 144 110 157> 637 48<110 144>
VStem: 17 48<559 592 559 606> 188 48<559 592>
LayerCount: 2
Fore
SplineSet
17 575 m 0
 17 635 67 685 127 685 c 0
 187 685 237 635 237 575 c 0
 237 515 187 466 127 466 c 0
 67 466 17 515 17 575 c 0
66 575 m 0
 66 541 93 514 127 514 c 0
 161 514 188 541 188 575 c 0
 188 609 161 637 127 637 c 0
 93 637 66 609 66 575 c 0
EndSplineSet
EndChar

StartChar: divide
Encoding: 247 247 208
Width: 418
Flags: HMW
HStem: 83 60<153 214 153 214> 246 60<0 372 0 372> 390 60<153 214 153 214>
VStem: 153 61<83 143 83 143 390 451>
LayerCount: 2
Fore
SplineSet
0 306 m 1
 372 306 l 1
 372 246 l 1
 0 246 l 1
 0 306 l 1
153 451 m 1
 214 451 l 1
 214 390 l 1
 153 390 l 1
 153 451 l 1
153 143 m 1
 214 143 l 1
 214 83 l 1
 153 83 l 1
 153 143 l 1
EndSplineSet
EndChar

StartChar: lozenge
Encoding: 9674 9674 209
Width: 462
Flags: HMW
HStem: 1 22G<217 217>
VStem: 2 430<306 306>
LayerCount: 2
Fore
SplineSet
217 1 m 1
 2 306 l 1
 217 611 l 1
 432 306 l 1
 217 1 l 1
77 306 m 1
 217 108 l 1
 357 306 l 1
 217 505 l 1
 77 306 l 1
EndSplineSet
EndChar

StartChar: A
Encoding: 65 65 210
Width: 659
Flags: HMW
HStem: 0 102<-2 504 110 548 110 614> 41 61<110 504 110 529 83 504>
VStem: -2 616<0 0>
LayerCount: 2
Fore
SplineSet
66 0 m 1x60
 -2 0 l 1
 306 715 l 1
 614 0 l 1
 548 0 l 1xa0
 529 41 l 1
 83 41 l 1
 66 0 l 1x60
306 562 m 1
 305 559 l 1
 110 102 l 1
 504 102 l 1xa0
 307 559 l 1
 306 562 l 1
EndSplineSet
Substitution2: "'salt' Stylistic Alternatives in Latin lookup 2 subtable" A.alt
EndChar
